<?xml version="1.0" standalone="no"?>
<!DOCTYPE svg PUBLIC "-//W3C//DTD SVG 20010904//EN"
 "http://www.w3.org/TR/2001/REC-SVG-20010904/DTD/svg10.dtd">
<svg version="1.0" xmlns="http://www.w3.org/2000/svg"
 width="512.000000pt" height="512.000000pt" viewBox="0 0 512.000000 512.000000"
 preserveAspectRatio="xMidYMid meet">

<g transform="translate(0.000000,512.000000) scale(0.100000,-0.100000)"
fill="#000000" stroke="none">
<path d="M2416 5104 c-147 -33 -290 -120 -380 -232 -80 -100 -122 -193 -150
-333 -5 -22 -15 -28 -68 -43 -225 -62 -486 -246 -644 -455 -79 -104 -174 -293
-209 -416 -30 -104 -55 -269 -55 -371 l0 -71 -66 -39 c-86 -50 -199 -169 -246
-259 -105 -201 -106 -438 -1 -637 l35 -67 -63 -78 c-188 -234 -297 -493 -339
-810 -12 -88 -9 -371 5 -448 5 -27 1 -33 -45 -64 -88 -59 -150 -158 -171 -275
-33 -177 66 -365 235 -446 200 -95 444 -15 550 181 60 110 63 264 7 381 -59
125 -202 225 -336 236 -46 3 -66 9 -70 21 -14 33 -18 318 -6 402 40 276 157
550 310 721 l42 47 48 -34 c116 -84 248 -126 396 -127 155 0 287 43 407 132
l53 41 23 -28 c126 -153 223 -381 263 -615 18 -102 20 -149 16 -278 -3 -85
-11 -183 -17 -217 l-12 -63 -47 0 c-113 0 -232 -52 -312 -137 -153 -162 -153
-414 1 -577 228 -241 629 -141 715 179 47 171 -22 358 -168 461 l-27 19 15 75
c22 108 31 376 16 494 -36 280 -137 535 -293 739 l-60 78 35 72 c51 102 70
185 71 302 0 117 -18 197 -69 300 -118 241 -341 376 -617 376 l-108 0 0 38 c0
20 5 73 10 119 46 367 281 700 610 867 57 29 181 78 185 73 1 -2 7 -29 14 -61
21 -98 93 -227 169 -305 133 -135 277 -201 458 -210 180 -8 336 46 475 163 98
83 191 227 214 333 3 17 11 32 16 32 22 0 145 -63 224 -114 291 -190 492 -520
530 -872 l7 -62 -89 0 c-292 -1 -551 -203 -638 -497 -28 -94 -27 -269 3 -365
27 -85 60 -154 102 -212 l29 -39 -69 -92 c-148 -195 -256 -473 -290 -751 -12
-93 -9 -364 5 -441 5 -27 1 -33 -45 -64 -127 -85 -197 -253 -171 -407 25 -139
111 -254 236 -314 206 -98 460 -9 557 196 37 79 48 150 37 238 -24 191 -186
348 -377 364 -57 4 -63 7 -70 31 -4 14 -7 112 -6 216 0 156 4 207 21 285 54
237 147 438 276 594 l24 29 39 -27 c63 -43 185 -85 276 -95 193 -22 393 41
528 165 l56 52 46 -57 c209 -261 308 -572 295 -921 -3 -80 -11 -173 -17 -207
l-12 -63 -57 0 c-116 0 -215 -43 -301 -129 -210 -210 -149 -561 119 -688 283
-133 611 75 611 388 0 126 -59 255 -149 326 -25 21 -49 40 -54 43 -4 4 1 44
10 91 13 64 17 134 17 294 0 181 -3 225 -22 315 -58 267 -159 481 -319 673
l-65 77 25 63 c72 181 61 395 -30 570 -54 102 -183 231 -284 282 l-76 39 -7
84 c-24 311 -158 610 -376 835 -132 138 -292 248 -452 313 l-83 33 -8 48 c-14
79 -56 205 -86 256 -88 151 -232 266 -396 317 -93 29 -245 35 -339 14z m224
-164 c213 -34 389 -214 421 -432 51 -344 -276 -644 -616 -564 -240 57 -412
290 -392 531 22 259 236 462 497 474 14 0 54 -4 90 -9z m-2095 -4278 c84 -43
134 -127 135 -225 0 -100 -44 -174 -131 -222 -132 -72 -295 -12 -355 130 -51
122 23 283 152 331 52 19 148 12 199 -14z m1416 13 c60 -21 104 -58 136 -113
24 -40 28 -58 28 -122 0 -52 -5 -86 -18 -111 -77 -155 -282 -191 -409 -72 -64
61 -89 193 -54 278 50 120 194 183 317 140z m1394 -13 c84 -43 134 -127 135
-225 0 -100 -44 -174 -131 -222 -168 -91 -369 30 -369 222 0 107 66 201 165
238 53 20 149 14 200 -13z m1416 13 c60 -21 104 -58 136 -113 24 -40 28 -58
28 -122 0 -52 -5 -86 -18 -111 -77 -155 -282 -191 -409 -72 -40 38 -71 118
-71 183 2 173 171 292 334 235z"/>
<path d="M4090 5035 l0 -85 385 0 385 0 0 85 0 85 -385 0 -385 0 0 -85z"/>
<path d="M4940 5035 l0 -85 85 0 85 0 0 85 0 85 -85 0 -85 0 0 -85z"/>
<path d="M4092 4778 l3 -83 508 -3 507 -2 0 85 0 85 -510 0 -511 0 3 -82z"/>
<path d="M4090 4525 l0 -85 215 0 215 0 0 85 0 85 -215 0 -215 0 0 -85z"/>
<path d="M4600 4525 l0 -85 255 0 255 0 0 85 0 85 -255 0 -255 0 0 -85z"/>
<path d="M4090 4265 l0 -85 510 0 510 0 0 85 0 85 -510 0 -510 0 0 -85z"/>
</g>
</svg>
