<?xml version="1.0" encoding="UTF-8" standalone="no"?>
<!-- Created with Inkscape (http://www.inkscape.org/) -->

<svg
   width="210mm"
   height="297mm"
   viewBox="0 0 210 297"
   version="1.1"
   id="svg5"
   inkscape:version="1.1.1 (3bf5ae0d25, 2021-09-20, custom)"
   sodipodi:docname="graphtree.svg"
   xmlns:inkscape="http://www.inkscape.org/namespaces/inkscape"
   xmlns:sodipodi="http://sodipodi.sourceforge.net/DTD/sodipodi-0.dtd"
   xmlns="http://www.w3.org/2000/svg"
   xmlns:svg="http://www.w3.org/2000/svg">
  <sodipodi:namedview
     id="namedview7"
     pagecolor="#ffffff"
     bordercolor="#666666"
     borderopacity="1.0"
     inkscape:pageshadow="2"
     inkscape:pageopacity="0.0"
     inkscape:pagecheckerboard="0"
     inkscape:document-units="mm"
     showgrid="false"
     inkscape:zoom="0.64052329"
     inkscape:cx="89.77035"
     inkscape:cy="561.25984"
     inkscape:window-width="1920"
     inkscape:window-height="1031"
     inkscape:window-x="0"
     inkscape:window-y="20"
     inkscape:window-maximized="1"
     inkscape:current-layer="g359" />
  <defs
     id="defs2">
    <symbol
       id="v"
       overflow="visible">
      <path
         d="m11.531-0.6875c-0.59375 0.30469-1.2148 0.53125-1.8594 0.6875-0.64844 0.16406-1.3203 0.25-2.0156 0.25-2.0938 0-3.75-0.58203-4.9688-1.75-1.2188-1.1758-1.8281-2.7656-1.8281-4.7656s0.60938-3.582 1.8281-4.75c1.2188-1.1641 2.875-1.75 4.9688-1.75 0.69531 0 1.3672 0.078125 2.0156 0.23438 0.64453 0.15625 1.2656 0.39062 1.8594 0.70312v2.5938c-0.60547-0.41406-1.1992-0.71875-1.7812-0.90625-0.58594-0.1875-1.1992-0.28125-1.8438-0.28125-1.1484 0-2.0547 0.37109-2.7188 1.1094-0.65625 0.74219-0.98438 1.7578-0.98438 3.0469 0 1.3047 0.32812 2.3242 0.98438 3.0625 0.66406 0.74219 1.5703 1.1094 2.7188 1.1094 0.64453 0 1.2578-0.09375 1.8438-0.28125 0.58203-0.19531 1.1758-0.5 1.7812-0.90625z"
         id="path203" />
    </symbol>
    <symbol
       id="b"
       overflow="visible">
      <path
         d="m8.4375-6.8438c-0.27344-0.125-0.53906-0.21094-0.79688-0.26562-0.26172-0.0625-0.52344-0.09375-0.78125-0.09375-0.77344 0-1.3672 0.25-1.7812 0.75-0.41797 0.49219-0.625 1.1992-0.625 2.125v4.3281h-3.0156v-9.4062h3.0156v1.5469c0.38281-0.61328 0.82812-1.0625 1.3281-1.3438 0.5-0.28906 1.0977-0.4375 1.7969-0.4375 0.10156 0 0.21094 0.007813 0.32812 0.015625 0.125 0.011719 0.29688 0.03125 0.51562 0.0625z"
         id="path206" />
    </symbol>
    <symbol
       id="a"
       overflow="visible">
      <path
         d="m10.844-4.7344v0.85938h-7.0312c0.070312 0.71094 0.32031 1.2422 0.75 1.5938 0.4375 0.35547 1.0508 0.53125 1.8438 0.53125 0.625 0 1.2695-0.09375 1.9375-0.28125 0.66406-0.1875 1.3477-0.47266 2.0469-0.85938v2.3125c-0.71094 0.27344-1.4219 0.47656-2.1406 0.60938-0.71094 0.14453-1.418 0.21875-2.125 0.21875-1.7109 0-3.0391-0.42969-3.9844-1.2969-0.9375-0.875-1.4062-2.0938-1.4062-3.6562 0-1.5312 0.46094-2.7344 1.3906-3.6094 0.92578-0.88281 2.2031-1.3281 3.8281-1.3281 1.4766 0 2.6602 0.44922 3.5469 1.3438 0.89453 0.88672 1.3438 2.0742 1.3438 3.5625zm-3.0938-1c0-0.5625-0.16797-1.0195-0.5-1.375-0.33594-0.35156-0.77344-0.53125-1.3125-0.53125-0.58594 0-1.0586 0.16797-1.4219 0.5-0.36719 0.32422-0.58984 0.79297-0.67188 1.4062z"
         id="path209" />
    </symbol>
    <symbol
       id="e"
       overflow="visible">
      <path
         d="m5.6562-4.2344c-0.625 0-1.1016 0.10938-1.4219 0.32812-0.3125 0.21094-0.46875 0.52344-0.46875 0.9375 0 0.375 0.125 0.67188 0.375 0.89062 0.25781 0.21875 0.61719 0.32812 1.0781 0.32812 0.5625 0 1.0352-0.20312 1.4219-0.60938 0.38281-0.40625 0.57812-0.91406 0.57812-1.5312v-0.34375zm4.5938-1.1406v5.375h-3.0312v-1.3906c-0.39844 0.57422-0.85156 0.99219-1.3594 1.25-0.5 0.25781-1.1094 0.39062-1.8281 0.39062-0.98047 0-1.7773-0.28516-2.3906-0.85938-0.60547-0.57031-0.90625-1.3125-0.90625-2.2188 0-1.1016 0.37891-1.9102 1.1406-2.4219 0.75781-0.50781 1.9531-0.76562 3.5781-0.76562h1.7656v-0.25c0-0.46875-0.1875-0.8125-0.5625-1.0312-0.375-0.22656-0.96094-0.34375-1.75-0.34375-0.64844 0-1.2461 0.070313-1.7969 0.20312-0.55469 0.125-1.0703 0.32031-1.5469 0.57812v-2.2969c0.64453-0.15625 1.2891-0.27344 1.9375-0.35938 0.65625-0.082031 1.3047-0.125 1.9531-0.125 1.6953 0 2.9219 0.33984 3.6719 1.0156 0.75 0.66797 1.125 1.75 1.125 3.25z"
         id="path212" />
    </symbol>
    <symbol
       id="d"
       overflow="visible">
      <path
         d="m4.7344-12.078v2.6719h3.0938v2.1562h-3.0938v3.9844c0 0.4375 0.082031 0.73438 0.25 0.89062 0.17578 0.14844 0.51953 0.21875 1.0312 0.21875h1.5469v2.1562h-2.5781c-1.1875 0-2.0312-0.24219-2.5312-0.73438-0.49219-0.5-0.73438-1.3438-0.73438-2.5312v-3.9844h-1.4844v-2.1562h1.4844v-2.6719z"
         id="path215" />
    </symbol>
    <symbol
       id="f"
       overflow="visible">
      <path
         d="m7.8438-8.0312v-5.0469h3.0312v13.078h-3.0312v-1.3594c-0.41797 0.55469-0.875 0.96094-1.375 1.2188-0.49219 0.25781-1.0625 0.39062-1.7188 0.39062-1.168 0-2.125-0.45703-2.875-1.375-0.74219-0.92578-1.1094-2.1172-1.1094-3.5781 0-1.4453 0.36719-2.6289 1.1094-3.5469 0.75-0.92578 1.707-1.3906 2.875-1.3906 0.64453 0 1.2188 0.13281 1.7188 0.39062 0.5 0.26172 0.95703 0.66797 1.375 1.2188zm-1.9844 6.0938c0.64453 0 1.1328-0.23438 1.4688-0.70312 0.34375-0.47656 0.51562-1.1641 0.51562-2.0625 0-0.89453-0.17188-1.5781-0.51562-2.0469-0.33594-0.46875-0.82422-0.70312-1.4688-0.70312-0.63672 0-1.125 0.23438-1.4688 0.70312-0.33594 0.46875-0.5 1.1523-0.5 2.0469 0 0.89844 0.16406 1.5859 0.5 2.0625 0.34375 0.46875 0.83203 0.70312 1.4688 0.70312z"
         id="path218" />
    </symbol>
    <symbol
       id="m"
       overflow="visible">
      <path
         d="m6.4531-1.9375c0.64453 0 1.1328-0.23438 1.4688-0.70312 0.34375-0.47656 0.51562-1.1641 0.51562-2.0625 0-0.89453-0.17188-1.5781-0.51562-2.0469-0.33594-0.46875-0.82422-0.70312-1.4688-0.70312-0.64844 0-1.1406 0.24219-1.4844 0.71875-0.34375 0.46875-0.51562 1.1484-0.51562 2.0312 0 0.89844 0.17188 1.5859 0.51562 2.0625 0.34375 0.46875 0.83594 0.70312 1.4844 0.70312zm-2-6.0938c0.41406-0.55078 0.875-0.95703 1.375-1.2188 0.5-0.25781 1.0781-0.39062 1.7344-0.39062 1.1641 0 2.1172 0.46484 2.8594 1.3906 0.75 0.91797 1.125 2.1016 1.125 3.5469 0 1.4609-0.375 2.6523-1.125 3.5781-0.74219 0.91797-1.6953 1.375-2.8594 1.375-0.65625 0-1.2344-0.13281-1.7344-0.39062s-0.96094-0.66406-1.375-1.2188v1.3594h-3.0156v-13.078h3.0156z"
         id="path221" />
    </symbol>
    <symbol
       id="l"
       overflow="visible">
      <path
         d="m0.20312-9.4062h3.0156l2.5312 6.375 2.1406-6.375h3.0156l-3.9531 10.297c-0.40625 1.0508-0.875 1.7852-1.4062 2.2031-0.52344 0.41406-1.2188 0.625-2.0938 0.625h-1.7344v-1.9844h0.9375c0.50781 0 0.87891-0.085937 1.1094-0.25 0.23828-0.15625 0.42188-0.44531 0.54688-0.85938l0.09375-0.26562z"
         id="path224" />
    </symbol>
    <symbol
       id="k"
       overflow="visible">
      <path
         d="m8.7969-9.1094v2.2812c-0.64844-0.26953-1.2734-0.47266-1.875-0.60938-0.59375-0.13281-1.1562-0.20312-1.6875-0.20312-0.57422 0-1 0.074219-1.2812 0.21875-0.27344 0.14844-0.40625 0.36719-0.40625 0.65625 0 0.24219 0.10156 0.42969 0.3125 0.5625 0.20703 0.125 0.58203 0.21875 1.125 0.28125l0.53125 0.078125c1.5391 0.19922 2.5781 0.52344 3.1094 0.96875 0.53125 0.44922 0.79688 1.1523 0.79688 2.1094 0 1-0.37109 1.7578-1.1094 2.2656-0.74219 0.5-1.8438 0.75-3.3125 0.75-0.61719 0-1.2578-0.054688-1.9219-0.15625-0.66797-0.09375-1.3516-0.23828-2.0469-0.4375v-2.2812c0.60156 0.29297 1.2188 0.51172 1.8438 0.65625 0.63281 0.14844 1.2734 0.21875 1.9219 0.21875 0.58203 0 1.0195-0.082031 1.3125-0.25 0.30078-0.16406 0.45312-0.40625 0.45312-0.71875 0-0.26953-0.10547-0.46875-0.3125-0.59375-0.19922-0.13281-0.60156-0.23828-1.2031-0.3125l-0.53125-0.078125c-1.3438-0.16406-2.2891-0.47266-2.8281-0.92188-0.53125-0.45703-0.79688-1.1445-0.79688-2.0625 0-1 0.33594-1.7383 1.0156-2.2188 0.6875-0.48828 1.7383-0.73438 3.1562-0.73438 0.55078 0 1.1289 0.046875 1.7344 0.14062 0.61328 0.085938 1.2812 0.21484 2 0.39062z"
         id="path227" />
    </symbol>
    <symbol
       id="j"
       overflow="visible">
      <path
         d="m9.0469-9.1094v2.4531c-0.40625-0.28125-0.82031-0.48828-1.2344-0.625-0.40625-0.13281-0.83594-0.20312-1.2812-0.20312-0.83594 0-1.4844 0.24609-1.9531 0.73438-0.46875 0.49219-0.70312 1.1719-0.70312 2.0469 0 0.88672 0.23438 1.5742 0.70312 2.0625 0.46875 0.49219 1.1172 0.73438 1.9531 0.73438 0.46875 0 0.91406-0.066406 1.3438-0.20312 0.42578-0.14453 0.81641-0.35156 1.1719-0.625v2.4531c-0.46875 0.17969-0.94922 0.30469-1.4375 0.39062-0.48047 0.09375-0.96484 0.14062-1.4531 0.14062-1.6992 0-3.0273-0.4375-3.9844-1.3125-0.96094-0.875-1.4375-2.0859-1.4375-3.6406 0-1.5391 0.47656-2.75 1.4375-3.625 0.95703-0.875 2.2852-1.3125 3.9844-1.3125 0.48828 0 0.97266 0.046875 1.4531 0.14062 0.47656 0.085938 0.95703 0.21484 1.4375 0.39062z"
         id="path230" />
    </symbol>
    <symbol
       id="i"
       overflow="visible">
      <path
         d="m10.906-5.7344v5.7344h-3.0312v-4.375c0-0.82031-0.023438-1.3828-0.0625-1.6875-0.03125-0.3125-0.089844-0.53906-0.17188-0.6875-0.125-0.19531-0.28906-0.34766-0.48438-0.45312-0.19922-0.10156-0.42969-0.15625-0.6875-0.15625-0.625 0-1.1211 0.24609-1.4844 0.73438-0.35547 0.48047-0.53125 1.1484-0.53125 2v4.625h-3.0156v-13.078h3.0156v5.0469c0.44531-0.55078 0.92578-0.95703 1.4375-1.2188 0.50781-0.25781 1.0703-0.39062 1.6875-0.39062 1.0938 0 1.9219 0.33594 2.4844 1 0.5625 0.66797 0.84375 1.6367 0.84375 2.9062z"
         id="path233" />
    </symbol>
    <symbol
       id="u"
       overflow="visible">
      <path
         d="m1.4375-9.4062h3.0156v9.4062h-3.0156zm0-3.6719h3.0156v2.4531h-3.0156z"
         id="path236" />
    </symbol>
    <symbol
       id="h"
       overflow="visible">
      <path
         d="m10.906-5.7344v5.7344h-3.0312v-4.3906c0-0.8125-0.023438-1.3672-0.0625-1.6719-0.03125-0.3125-0.089844-0.53906-0.17188-0.6875-0.125-0.19531-0.28906-0.34766-0.48438-0.45312-0.19922-0.10156-0.42969-0.15625-0.6875-0.15625-0.625 0-1.1211 0.24609-1.4844 0.73438-0.35547 0.48047-0.53125 1.1484-0.53125 2v4.625h-3.0156v-9.4062h3.0156v1.375c0.44531-0.55078 0.92578-0.95703 1.4375-1.2188 0.50781-0.25781 1.0703-0.39062 1.6875-0.39062 1.0938 0 1.9219 0.33594 2.4844 1 0.5625 0.66797 0.84375 1.6367 0.84375 2.9062z"
         id="path239" />
    </symbol>
    <symbol
       id="g"
       overflow="visible">
      <path
         d="m10.156-7.8438c0.38281-0.58203 0.83594-1.0234 1.3594-1.3281 0.53125-0.3125 1.1094-0.46875 1.7344-0.46875 1.082 0 1.9062 0.33594 2.4688 1 0.5625 0.66797 0.84375 1.6367 0.84375 2.9062v5.7344h-3.0156v-4.9062-0.21875c0.007813-0.082031 0.015625-0.19531 0.015625-0.34375 0-0.66406-0.10156-1.1445-0.29688-1.4375-0.19922-0.30078-0.51562-0.45312-0.95312-0.45312-0.57422 0-1.0156 0.23438-1.3281 0.70312-0.30469 0.46875-0.46094 1.1484-0.46875 2.0312v4.625h-3.0312v-4.9062c0-1.0391-0.089844-1.707-0.26562-2-0.17969-0.30078-0.49609-0.45312-0.95312-0.45312-0.58594 0-1.0312 0.23438-1.3438 0.70312s-0.46875 1.1484-0.46875 2.0312v4.625h-3.0312v-9.4062h3.0312v1.375c0.36328-0.53125 0.78516-0.92969 1.2656-1.2031 0.47656-0.26953 1.0078-0.40625 1.5938-0.40625 0.64453 0 1.2188 0.16406 1.7188 0.48438 0.5 0.3125 0.875 0.75 1.125 1.3125z"
         id="path242" />
    </symbol>
    <symbol
       id="c"
       overflow="visible">
      <path
         d="m5.9219-7.4844c-0.66797 0-1.1797 0.24219-1.5312 0.71875-0.34375 0.48047-0.51562 1.168-0.51562 2.0625 0 0.90625 0.17188 1.6016 0.51562 2.0781 0.35156 0.48047 0.86328 0.71875 1.5312 0.71875 0.65625 0 1.1562-0.23828 1.5-0.71875 0.35156-0.47656 0.53125-1.1719 0.53125-2.0781 0-0.89453-0.17969-1.582-0.53125-2.0625-0.34375-0.47656-0.84375-0.71875-1.5-0.71875zm0-2.1562c1.6133 0 2.875 0.4375 3.7812 1.3125 0.91406 0.875 1.375 2.0859 1.375 3.625 0 1.5547-0.46094 2.7656-1.375 3.6406-0.90625 0.875-2.168 1.3125-3.7812 1.3125-1.625 0-2.8984-0.4375-3.8125-1.3125-0.91797-0.875-1.375-2.0859-1.375-3.6406 0-1.5391 0.45703-2.75 1.375-3.625 0.91406-0.875 2.1875-1.3125 3.8125-1.3125z"
         id="path245" />
    </symbol>
    <symbol
       id="t"
       overflow="visible">
      <path
         d="m7.8438-1.5938c-0.41797 0.55469-0.875 0.96094-1.375 1.2188-0.49219 0.25-1.0625 0.375-1.7188 0.375-1.1484 0-2.1016-0.45312-2.8594-1.3594-0.75-0.90625-1.125-2.0547-1.125-3.4531 0-1.4062 0.375-2.5547 1.125-3.4531 0.75781-0.90625 1.7109-1.3594 2.8594-1.3594 0.65625 0 1.2266 0.13281 1.7188 0.39062 0.5 0.26172 0.95703 0.66797 1.375 1.2188v-1.3906h3.0312v8.4531c0 1.5078-0.48047 2.6641-1.4375 3.4688-0.96094 0.80078-2.3438 1.2031-4.1562 1.2031-0.58594 0-1.1523-0.046875-1.7031-0.14062-0.55469-0.09375-1.1055-0.23047-1.6562-0.40625v-2.3438c0.53125 0.30078 1.0469 0.52344 1.5469 0.67188 0.5 0.14453 1.0039 0.21875 1.5156 0.21875 0.98828 0 1.7109-0.21875 2.1719-0.65625 0.45703-0.42969 0.6875-1.0977 0.6875-2.0156zm-1.9844-5.8594c-0.61719 0-1.1016 0.23047-1.4531 0.6875-0.34375 0.46094-0.51562 1.1094-0.51562 1.9531 0 0.86719 0.16406 1.5234 0.5 1.9688 0.33203 0.4375 0.82031 0.65625 1.4688 0.65625 0.625 0 1.1094-0.22656 1.4531-0.6875 0.35156-0.45703 0.53125-1.1016 0.53125-1.9375 0-0.84375-0.17969-1.4922-0.53125-1.9531-0.34375-0.45703-0.82812-0.6875-1.4531-0.6875z"
         id="path248" />
    </symbol>
    <symbol
       id="s"
       overflow="visible">
      <path
         d="m1.4375-13.078h3.0156v7.125l3.4531-3.4531h3.5l-4.5938 4.3125 4.9531 5.0938h-3.6406l-3.6719-3.9219v3.9219h-3.0156z"
         id="path251" />
    </symbol>
    <symbol
       id="r"
       overflow="visible">
      <path
         d="m7.6406-13.078v1.9844h-1.6719c-0.42969 0-0.72656 0.078125-0.89062 0.23438-0.16797 0.14844-0.25 0.41406-0.25 0.79688v0.65625h2.5781v2.1562h-2.5781v7.25h-3v-7.25h-1.5v-2.1562h1.5v-0.65625c0-1.0195 0.28125-1.7734 0.84375-2.2656 0.57031-0.5 1.457-0.75 2.6562-0.75z"
         id="path254" />
    </symbol>
    <symbol
       id="q"
       overflow="visible">
      <path
         d="m1.5781-12.547h3.6094l4.5625 8.6094v-8.6094h3.0625v12.547h-3.6094l-4.5625-8.6094v8.6094h-3.0625z"
         id="path257" />
    </symbol>
    <symbol
       id="p"
       overflow="visible">
      <path
         d="m1.3438-3.6562v-5.75h3.0312v0.9375c0 0.51172-0.007812 1.1523-0.015625 1.9219-0.011719 0.77344-0.015625 1.2891-0.015625 1.5469 0 0.75 0.019531 1.293 0.0625 1.625 0.039062 0.33594 0.10938 0.57812 0.20312 0.73438 0.125 0.1875 0.28516 0.33984 0.48438 0.45312 0.19531 0.10547 0.42578 0.15625 0.6875 0.15625 0.625 0 1.1133-0.23828 1.4688-0.71875 0.36328-0.48828 0.54688-1.1602 0.54688-2.0156v-4.6406h3v9.4062h-3v-1.3594c-0.46094 0.55469-0.94531 0.96094-1.4531 1.2188-0.5 0.25781-1.0586 0.39062-1.6719 0.39062-1.0859 0-1.9141-0.33203-2.4844-1-0.5625-0.66406-0.84375-1.6328-0.84375-2.9062z"
         id="path260" />
    </symbol>
    <symbol
       id="o"
       overflow="visible">
      <path
         d="m1.5781-12.547h5.375c1.5938 0 2.8164 0.35547 3.6719 1.0625 0.85156 0.71094 1.2812 1.7188 1.2812 3.0312 0 1.3242-0.42969 2.3398-1.2812 3.0469-0.85547 0.71094-2.0781 1.0625-3.6719 1.0625h-2.1406v4.3438h-3.2344zm3.2344 2.3438v3.5156h1.7969c0.625 0 1.1016-0.14844 1.4375-0.45312 0.34375-0.3125 0.51562-0.75 0.51562-1.3125s-0.17188-0.99219-0.51562-1.2969c-0.33594-0.30078-0.8125-0.45312-1.4375-0.45312z"
         id="path263" />
    </symbol>
    <symbol
       id="n"
       overflow="visible">
      <path
         d="m1.4375-9.4062h3.0156v9.2344c0 1.2578-0.30469 2.2227-0.90625 2.8906-0.60547 0.66406-1.4805 1-2.625 1h-1.5v-1.9844h0.53125c0.57031 0 0.96094-0.13281 1.1719-0.39062 0.20703-0.25 0.3125-0.75781 0.3125-1.5156zm0-3.6719h3.0156v2.4531h-3.0156z"
         id="path266" />
    </symbol>
  </defs>
  <g
     inkscape:label="Layer 1"
     inkscape:groupmode="layer"
     id="layer1">
    <g
       id="g359"
       transform="matrix(0.35277778,0,0,0.35277778,-5.9406092,27.899879)"
       style="fill:#0000ff"
       inkscape:transform-center-x="-13.685109"
       inkscape:transform-center-y="-97.749316">
      <path
         d="m 462.95,429.58 c -7.9102,0 -15.078,2.9883 -20.703,7.7461 -0.39062,-0.39844 -79.25,-46.062 -79.25,-46.062 v -30.203 c 12.902,-2.9375 22.535,-14.418 22.535,-28.199 0,-16.004 -12.965,-28.98 -28.973,-28.98 -15.996,0 -28.977,12.973 -28.977,28.98 0,13.781 9.6445,25.266 22.535,28.199 v 30.32 c 0,0 -78.715,45.57 -79.125,45.996 -5.6406,-4.8672 -12.891,-7.9141 -20.91,-7.9141 -17.742,0 -32.191,14.441 -32.191,32.191 0,17.75 14.449,32.191 32.191,32.191 17.758,0 32.195,-14.441 32.195,-32.191 0,-5.1602 -1.3359,-9.9805 -3.5117,-14.312 l 71.344,-41.102 c 0,0 0.10547,41.84 0.12891,42.055 -14.73,2.9453 -25.883,15.973 -25.883,31.559 0,17.75 14.449,32.191 32.191,32.191 17.758,0 32.188,-14.441 32.188,-32.191 0,-15.59 -11.141,-28.609 -25.879,-31.559 0.0234,-0.21875 0.125,-42.168 0.125,-42.168 l 71.379,41.129 c -2.2383,4.3789 -3.625,9.2656 -3.625,14.52 0,17.754 14.449,32.191 32.195,32.191 17.758,0 32.191,-14.438 32.191,-32.191 0.0195,-17.754 -14.414,-32.195 -32.172,-32.195 z m -212.40696,31.14403 c -14.199,0 -26.21704,15.13697 -26.21704,0.92997 0,-14.207 11.3609,-1.26636 25.5599,-1.26636 14.207,0 25.9521,-12.94064 25.9521,1.26636 0,14.207 -11.08796,-0.92997 -25.29496,-0.92997 z M 382.3,479.8494 c 0,14.207 -11.547,25.754 -25.75,25.754 -14.199,0 -25.754,-11.547 -25.754,-25.754 0,-14.184 11.523,-25.715 25.691,-25.746 0.0273,0 0.0469,0.0117 0.0664,0.0117 0.0234,0 -32.22159,25.7389 -32.19819,25.7389 14.168,0.0352 57.94459,-14.1886 57.94459,-0.005 z m 80.645,7.6797 c -14.199,0 -25.758,-11.547 -25.758,-25.754 0,-14.203 13.13642,26.64056 27.33542,26.64056 14.207,0 24.17658,-40.84356 24.17658,-26.64056 0,14.203 -11.547,25.754 -25.754,25.754 z"
         id="path271"
         style="fill:#b45e3d;fill-opacity:1"
         sodipodi:nodetypes="ccccssscccsssscccssscccsscccssssscsssscccsssss" />
      <path
         d="m 234.29,281.2 19.922,11.809 c -2.2383,4.3828 -3.6211,9.2656 -3.6211,14.523 0,17.75 14.449,32.191 32.191,32.191 17.758,0 32.191,-14.441 32.191,-32.191 0,-17.75 -14.438,-32.191 -32.191,-32.191 -7.9141,0 -15.078,2.9844 -20.699,7.7461 -0.39063,-0.40234 -21.117,-12.676 -21.117,-12.676 v -29.871 c 14.941,-2.7891 26.293,-15.863 26.293,-31.602 0,-5.1602 -1.332,-9.9766 -3.5117,-14.309 l 71.348,-41.109 c 0,0 0.10547,41.844 0.12891,42.055 -14.73,2.9492 -25.883,15.973 -25.883,31.559 0,17.754 14.449,32.195 32.191,32.195 17.758,0 32.191,-14.441 32.191,-32.195 0,-15.586 -11.141,-28.605 -25.883,-31.559 0.0234,-0.21484 0.12891,-42.164 0.12891,-42.164 l 71.387,41.133 c -2.2383,4.3789 -3.625,9.2656 -3.625,14.52 0,17.75 14.449,32.191 32.191,32.191 17.758,0 32.195,-14.441 32.195,-32.191 0,-17.75 -14.438,-32.191 -32.195,-32.191 -7.9219,0 -15.078,2.9883 -20.699,7.7461 -0.39062,-0.40234 -79.258,-46.062 -79.258,-46.062 v -30.207 c 12.895,-2.9336 22.535,-14.418 22.535,-28.199 0,-16 -12.965,-28.977 -28.977,-28.977 -15.996,0 -28.977,12.973 -28.977,28.977 0,13.781 9.6445,25.266 22.535,28.199 v 30.32 c 0,0 -78.715,45.574 -79.125,46 -5.6406,-4.8672 -12.891,-7.918 -20.91,-7.918 -17.742,0 -32.191,14.441 -32.191,32.191 0,15.352 10.824,28.184 25.223,31.383 v 30.195 c 0,0 -21.781,12.547 -22.188,12.973 -5.6406,-4.8672 -12.891,-7.9141 -20.91,-7.9141 -17.746,0 -32.195,14.441 -32.195,32.191 0,17.75 14.449,32.191 32.195,32.191 17.758,0 32.191,-14.441 32.191,-32.191 0,-5.1602 -1.332,-9.9805 -3.5117,-14.312 z m 48.488,0.57422 c 14.207,0 25.754,11.547 25.754,25.754 0,14.207 -11.547,25.754 -25.754,25.754 -14.199,0 -25.754,-11.547 -25.754,-25.754 0,-14.207 11.555,-25.754 25.754,-25.754 z m 165.15,-98.477 c 14.199,0 25.754,11.547 25.754,25.754 0,14.207 -11.555,25.754 -25.754,25.754 -14.199,0 -25.754,-11.547 -25.754,-25.754 0,-14.203 11.555,-25.754 25.754,-25.754 z m -106.39,18.098 c 0.0234,0 0.043,-0.0156 0.0625,-0.0156 14.176,0.0391 25.691,11.562 25.691,25.746 0,14.207 -11.547,25.75801 -25.754,25.75801 -14.199,0 -25.754,-11.551 -25.754,-25.75801 0,-14.184 11.523,-25.715 25.691,-25.746 0.0234,0.004 0.043,0.0156 0.0625,0.0156 z m -132.23,7.5391 c 0,-14.203 11.555,-25.754 25.754,-25.754 14.207,0 25.754,11.551 25.754,25.754 0,14.207 -11.547,25.758 -25.754,25.758 -14.199,0 -25.754,-11.551 -25.754,-25.758 z m -24.316,124.59 c -14.199,0 -25.758,-11.547 -25.758,-25.754 0,-14.207 11.559,-25.754 25.758,-25.754 14.203,0 25.754,11.547 25.754,25.754 0,14.203 -11.551,25.754 -25.754,25.754 z"
         id="path273"
         style="fill:#3d7aa6;fill-opacity:1" />
      <path
         d="m 525.05,342.37 c -7.9102,0 -15.078,2.9844 -20.703,7.7461 -0.39062,-0.40234 -21.117,-12.676 -21.117,-12.676 v -30.207 c 12.902,-2.9375 22.535,-14.418 22.535,-28.199 0,-16 -12.965,-28.977 -28.977,-28.977 -15.996,0 -28.977,12.973 -28.977,28.977 0,13.781 9.6445,25.266 22.535,28.199 v 30.32 c 0,0 -21.781,12.547 -22.188,12.973 -5.6484,-4.8672 -12.887,-7.9141 -20.914,-7.9141 -17.742,0 -32.191,14.441 -32.191,32.191 0,17.75 14.449,32.191 32.191,32.191 17.758,0 32.191,-14.441 32.191,-32.191 0,-5.1602 -1.332,-9.9805 -3.5117,-14.312 l 20.613,-12.258 19.918,11.809 c -2.2383,4.3789 -3.6211,9.2656 -3.6211,14.523 0,17.75 14.445,32.191 32.191,32.191 17.758,0 32.191,-14.441 32.191,-32.191 0.0156,-17.746 -14.414,-32.195 -32.168,-32.195 z m -97.797,58.188 c -14.199,0 -25.754,-11.547 -25.754,-25.754 0,-14.207 11.555,-25.754 25.754,-25.754 14.211,0 -25.754,11.547 -25.754,25.754 0.004,14.207 39.969,25.754 25.754,25.754 z m 97.797,-0.23438 c -14.199,0 29.35231,-10.94975 29.35231,-25.15675 0,-14.207 -43.55131,-26.35125 -29.35231,-26.35125 14.211,0 25.754,11.547 25.754,25.754 0,14.203 -11.543,25.754 -25.754,25.754 z"
         id="path275"
         style="fill:#000095;fill-opacity:0.7966"
         sodipodi:nodetypes="ccccssscccsssscccsscccssscssssss" />
    </g>
  </g>
</svg>
