<svg xmlns="http://www.w3.org/2000/svg" xmlns:xlink="http://www.w3.org/1999/xlink" width="512.0000000000005" height="511.99999999953434"><path d="M0 0L512 0L512 512L0 512L0 0Z" style="mix-blend-mode:normal" fill="#ffffff"></path><path d="M60 30Q60 30.7365 59.9639 31.472Q59.9277 32.2076 59.8555 32.9405Q59.7833 33.6734 59.6753 34.4019Q59.5672 35.1304 59.4235 35.8527Q59.2799 36.575 59.1009 37.2894Q58.922 38.0038 58.7082 38.7085Q58.4944 39.4133 58.2463 40.1067Q57.9982 40.8001 57.7164 41.4805Q57.4345 42.1609 57.1197 42.8266Q56.8048 43.4924 56.4576 44.1419Q56.1105 44.7914 55.7318 45.4231Q55.3532 46.0548 54.9441 46.6671Q54.5349 47.2794 54.0962 47.871Q53.6575 48.4625 53.1903 49.0318Q52.7231 49.6011 52.2285 50.1468Q51.734 50.6924 51.2132 51.2132Q50.6924 51.734 50.1468 52.2285Q49.6011 52.7231 49.0318 53.1903Q48.4625 53.6575 47.871 54.0962Q47.2794 54.5349 46.6671 54.9441Q46.0548 55.3532 45.4231 55.7319Q44.7914 56.1105 44.1419 56.4576Q43.4924 56.8048 42.8266 57.1197Q42.1609 57.4345 41.4805 57.7164Q40.8001 57.9982 40.1067 58.2463Q39.4133 58.4944 38.7085 58.7082Q38.0038 58.922 37.2894 59.1009Q36.575 59.2799 35.8527 59.4236Q35.1304 59.5672 34.4019 59.6753Q33.6734 59.7833 32.9405 59.8555Q32.2076 59.9277 31.472 59.9639Q30.7365 60 30 60Q29.2635 60 28.528 59.9639Q27.7924 59.9277 27.0595 59.8555Q26.3266 59.7833 25.5981 59.6753Q24.8696 59.5672 24.1473 59.4235Q23.425 59.2799 22.7106 59.1009Q21.9962 58.922 21.2915 58.7082Q20.5867 58.4944 19.8933 58.2463Q19.1999 57.9982 18.5195 57.7164Q17.8391 57.4345 17.1733 57.1197Q16.5076 56.8048 15.8581 56.4576Q15.2086 56.1105 14.5769 55.7318Q13.9452 55.3532 13.3329 54.9441Q12.7205 54.5349 12.129 54.0962Q11.5375 53.6575 10.9682 53.1903Q10.3989 52.7231 9.85323 52.2285Q9.30755 51.734 8.7868 51.2132Q8.26604 50.6924 7.77146 50.1468Q7.27689 49.6011 6.80969 49.0318Q6.34248 48.4625 5.90377 47.871Q5.46507 47.2794 5.05591 46.6671Q4.64676 46.0548 4.26814 45.4231Q3.88953 44.7914 3.54236 44.1419Q3.1952 43.4924 2.88032 42.8266Q2.56544 42.1609 2.28361 41.4805Q2.00178 40.8001 1.75368 40.1067Q1.50557 39.4133 1.29179 38.7085Q1.07801 38.0038 0.899062 37.2894Q0.720117 36.575 0.576441 35.8527Q0.432766 35.1304 0.324705 34.4019Q0.216644 33.6734 0.144458 32.9405Q0.0722726 32.2076 0.0361363 31.472Q0 30.7365 0 30Q0 29.2635 0.0361363 28.528Q0.0722726 27.7924 0.144458 27.0595Q0.216644 26.3266 0.324705 25.5981Q0.432766 24.8696 0.576441 24.1473Q0.720117 23.425 0.899062 22.7106Q1.07801 21.9962 1.29179 21.2915Q1.50557 20.5867 1.75368 19.8933Q2.00178 19.1999 2.28361 18.5195Q2.56544 17.8391 2.88032 17.1733Q3.1952 16.5076 3.54236 15.8581Q3.88953 15.2086 4.26814 14.5769Q4.64676 13.9452 5.05591 13.3329Q5.46507 12.7205 5.90377 12.129Q6.34248 11.5375 6.80969 10.9682Q7.27689 10.3989 7.77146 9.85323Q8.26604 9.30755 8.7868 8.7868Q9.30755 8.26604 9.85323 7.77146Q10.3989 7.27689 10.9682 6.80969Q11.5375 6.34248 12.129 5.90377Q12.7205 5.46507 13.3329 5.05591Q13.9452 4.64676 14.5769 4.26814Q15.2086 3.88953 15.8581 3.54236Q16.5076 3.1952 17.1733 2.88032Q17.8391 2.56544 18.5195 2.28361Q19.1999 2.00178 19.8933 1.75368Q20.5867 1.50557 21.2915 1.29179Q21.9962 1.07801 22.7106 0.899062Q23.425 0.720117 24.1473 0.576441Q24.8696 0.432766 25.5981 0.324705Q26.3266 0.216644 27.0595 0.144458Q27.7924 0.0722726 28.528 0.0361363Q29.2635 0 30 0Q30.7365 0 31.472 0.0361363Q32.2076 0.0722726 32.9405 0.144458Q33.6734 0.216644 34.4019 0.324705Q35.1304 0.432766 35.8527 0.576441Q36.575 0.720117 37.2894 0.899062Q38.0038 1.07801 38.7085 1.29179Q39.4133 1.50557 40.1067 1.75368Q40.8001 2.00178 41.4805 2.28361Q42.1609 2.56544 42.8266 2.88032Q43.4924 3.1952 44.1419 3.54236Q44.7914 3.88953 45.4231 4.26814Q46.0548 4.64676 46.6671 5.05591Q47.2794 5.46507 47.871 5.90377Q48.4625 6.34248 49.0318 6.80969Q49.6011 7.27689 50.1468 7.77146Q50.6924 8.26604 51.2132 8.7868Q51.734 9.30755 52.2285 9.85323Q52.7231 10.3989 53.1903 10.9682Q53.6575 11.5375 54.0962 12.129Q54.5349 12.7205 54.9441 13.3329Q55.3532 13.9452 55.7319 14.5769Q56.1105 15.2086 56.4576 15.8581Q56.8048 16.5076 57.1197 17.1733Q57.4345 17.8391 57.7164 18.5195Q57.9982 19.1999 58.2463 19.8933Q58.4944 20.5867 58.7082 21.2915Q58.922 21.9962 59.1009 22.7106Q59.2799 23.425 59.4236 24.1473Q59.5672 24.8696 59.6753 25.5981Q59.7833 26.3266 59.8555 27.0595Q59.9277 27.7924 59.9639 28.528Q60 29.2635 60 30Z" style="mix-blend-mode:normal" fill="#5eaff9" transform="translate(123, 159)"></path><path d="M60 30Q60 30.7365 59.9639 31.472Q59.9277 32.2076 59.8555 32.9405Q59.7833 33.6734 59.6753 34.4019Q59.5672 35.1304 59.4235 35.8527Q59.2799 36.575 59.1009 37.2894Q58.922 38.0038 58.7082 38.7085Q58.4944 39.4133 58.2463 40.1067Q57.9982 40.8001 57.7164 41.4805Q57.4345 42.1609 57.1197 42.8266Q56.8048 43.4924 56.4576 44.1419Q56.1105 44.7914 55.7318 45.4231Q55.3532 46.0548 54.9441 46.6671Q54.5349 47.2794 54.0962 47.871Q53.6575 48.4625 53.1903 49.0318Q52.7231 49.6011 52.2285 50.1468Q51.734 50.6924 51.2132 51.2132Q50.6924 51.734 50.1468 52.2285Q49.6011 52.7231 49.0318 53.1903Q48.4625 53.6575 47.871 54.0962Q47.2794 54.5349 46.6671 54.9441Q46.0548 55.3532 45.4231 55.7319Q44.7914 56.1105 44.1419 56.4576Q43.4924 56.8048 42.8266 57.1197Q42.1609 57.4345 41.4805 57.7164Q40.8001 57.9982 40.1067 58.2463Q39.4133 58.4944 38.7085 58.7082Q38.0038 58.922 37.2894 59.1009Q36.575 59.2799 35.8527 59.4236Q35.1304 59.5672 34.4019 59.6753Q33.6734 59.7833 32.9405 59.8555Q32.2076 59.9277 31.472 59.9639Q30.7365 60 30 60Q29.2635 60 28.528 59.9639Q27.7924 59.9277 27.0595 59.8555Q26.3266 59.7833 25.5981 59.6753Q24.8696 59.5672 24.1473 59.4235Q23.425 59.2799 22.7106 59.1009Q21.9962 58.922 21.2915 58.7082Q20.5867 58.4944 19.8933 58.2463Q19.1999 57.9982 18.5195 57.7164Q17.8391 57.4345 17.1733 57.1197Q16.5076 56.8048 15.8581 56.4576Q15.2086 56.1105 14.5769 55.7318Q13.9452 55.3532 13.3329 54.9441Q12.7205 54.5349 12.129 54.0962Q11.5375 53.6575 10.9682 53.1903Q10.3989 52.7231 9.85323 52.2285Q9.30755 51.734 8.7868 51.2132Q8.26604 50.6924 7.77146 50.1468Q7.27689 49.6011 6.80969 49.0318Q6.34248 48.4625 5.90377 47.871Q5.46507 47.2794 5.05591 46.6671Q4.64676 46.0548 4.26814 45.4231Q3.88953 44.7914 3.54236 44.1419Q3.1952 43.4924 2.88032 42.8266Q2.56544 42.1609 2.28361 41.4805Q2.00178 40.8001 1.75368 40.1067Q1.50557 39.4133 1.29179 38.7085Q1.07801 38.0038 0.899062 37.2894Q0.720117 36.575 0.576441 35.8527Q0.432766 35.1304 0.324705 34.4019Q0.216644 33.6734 0.144458 32.9405Q0.0722726 32.2076 0.0361363 31.472Q0 30.7365 0 30Q0 29.2635 0.0361363 28.528Q0.0722726 27.7924 0.144458 27.0595Q0.216644 26.3266 0.324705 25.5981Q0.432766 24.8696 0.576441 24.1473Q0.720117 23.425 0.899062 22.7106Q1.07801 21.9962 1.29179 21.2915Q1.50557 20.5867 1.75368 19.8933Q2.00178 19.1999 2.28361 18.5195Q2.56544 17.8391 2.88032 17.1733Q3.1952 16.5076 3.54236 15.8581Q3.88953 15.2086 4.26814 14.5769Q4.64676 13.9452 5.05591 13.3329Q5.46507 12.7205 5.90377 12.129Q6.34248 11.5375 6.80969 10.9682Q7.27689 10.3989 7.77146 9.85323Q8.26604 9.30755 8.7868 8.7868Q9.30755 8.26604 9.85323 7.77146Q10.3989 7.27689 10.9682 6.80969Q11.5375 6.34248 12.129 5.90377Q12.7205 5.46507 13.3329 5.05591Q13.9452 4.64676 14.5769 4.26814Q15.2086 3.88953 15.8581 3.54236Q16.5076 3.1952 17.1733 2.88032Q17.8391 2.56544 18.5195 2.28361Q19.1999 2.00178 19.8933 1.75368Q20.5867 1.50557 21.2915 1.29179Q21.9962 1.07801 22.7106 0.899062Q23.425 0.720117 24.1473 0.576441Q24.8696 0.432766 25.5981 0.324705Q26.3266 0.216644 27.0595 0.144458Q27.7924 0.0722726 28.528 0.0361363Q29.2635 0 30 0Q30.7365 0 31.472 0.0361363Q32.2076 0.0722726 32.9405 0.144458Q33.6734 0.216644 34.4019 0.324705Q35.1304 0.432766 35.8527 0.576441Q36.575 0.720117 37.2894 0.899062Q38.0038 1.07801 38.7085 1.29179Q39.4133 1.50557 40.1067 1.75368Q40.8001 2.00178 41.4805 2.28361Q42.1609 2.56544 42.8266 2.88032Q43.4924 3.1952 44.1419 3.54236Q44.7914 3.88953 45.4231 4.26814Q46.0548 4.64676 46.6671 5.05591Q47.2794 5.46507 47.871 5.90377Q48.4625 6.34248 49.0318 6.80969Q49.6011 7.27689 50.1468 7.77146Q50.6924 8.26604 51.2132 8.7868Q51.734 9.30755 52.2285 9.85323Q52.7231 10.3989 53.1903 10.9682Q53.6575 11.5375 54.0962 12.129Q54.5349 12.7205 54.9441 13.3329Q55.3532 13.9452 55.7319 14.5769Q56.1105 15.2086 56.4576 15.8581Q56.8048 16.5076 57.1197 17.1733Q57.4345 17.8391 57.7164 18.5195Q57.9982 19.1999 58.2463 19.8933Q58.4944 20.5867 58.7082 21.2915Q58.922 21.9962 59.1009 22.7106Q59.2799 23.425 59.4236 24.1473Q59.5672 24.8696 59.6753 25.5981Q59.7833 26.3266 59.8555 27.0595Q59.9277 27.7924 59.9639 28.528Q60 29.2635 60 30Z" style="mix-blend-mode:normal" fill="#5eaff9" transform="translate(123, 284)"></path><path d="M60 30Q60 30.7365 59.9639 31.472Q59.9277 32.2076 59.8555 32.9405Q59.7833 33.6734 59.6753 34.4019Q59.5672 35.1304 59.4235 35.8527Q59.2799 36.575 59.1009 37.2894Q58.922 38.0038 58.7082 38.7085Q58.4944 39.4133 58.2463 40.1067Q57.9982 40.8001 57.7164 41.4805Q57.4345 42.1609 57.1197 42.8266Q56.8048 43.4924 56.4576 44.1419Q56.1105 44.7914 55.7318 45.4231Q55.3532 46.0548 54.9441 46.6671Q54.5349 47.2794 54.0962 47.871Q53.6575 48.4625 53.1903 49.0318Q52.7231 49.6011 52.2285 50.1468Q51.734 50.6924 51.2132 51.2132Q50.6924 51.734 50.1468 52.2285Q49.6011 52.7231 49.0318 53.1903Q48.4625 53.6575 47.871 54.0962Q47.2794 54.5349 46.6671 54.9441Q46.0548 55.3532 45.4231 55.7319Q44.7914 56.1105 44.1419 56.4576Q43.4924 56.8048 42.8266 57.1197Q42.1609 57.4345 41.4805 57.7164Q40.8001 57.9982 40.1067 58.2463Q39.4133 58.4944 38.7085 58.7082Q38.0038 58.922 37.2894 59.1009Q36.575 59.2799 35.8527 59.4236Q35.1304 59.5672 34.4019 59.6753Q33.6734 59.7833 32.9405 59.8555Q32.2076 59.9277 31.472 59.9639Q30.7365 60 30 60Q29.2635 60 28.528 59.9639Q27.7924 59.9277 27.0595 59.8555Q26.3266 59.7833 25.5981 59.6753Q24.8696 59.5672 24.1473 59.4235Q23.425 59.2799 22.7106 59.1009Q21.9962 58.922 21.2915 58.7082Q20.5867 58.4944 19.8933 58.2463Q19.1999 57.9982 18.5195 57.7164Q17.8391 57.4345 17.1733 57.1197Q16.5076 56.8048 15.8581 56.4576Q15.2086 56.1105 14.5769 55.7318Q13.9452 55.3532 13.3329 54.9441Q12.7205 54.5349 12.129 54.0962Q11.5375 53.6575 10.9682 53.1903Q10.3989 52.7231 9.85323 52.2285Q9.30755 51.734 8.7868 51.2132Q8.26604 50.6924 7.77146 50.1468Q7.27689 49.6011 6.80969 49.0318Q6.34248 48.4625 5.90377 47.871Q5.46507 47.2794 5.05591 46.6671Q4.64676 46.0548 4.26814 45.4231Q3.88953 44.7914 3.54236 44.1419Q3.1952 43.4924 2.88032 42.8266Q2.56544 42.1609 2.28361 41.4805Q2.00178 40.8001 1.75368 40.1067Q1.50557 39.4133 1.29179 38.7085Q1.07801 38.0038 0.899062 37.2894Q0.720117 36.575 0.576441 35.8527Q0.432766 35.1304 0.324705 34.4019Q0.216644 33.6734 0.144458 32.9405Q0.0722726 32.2076 0.0361363 31.472Q0 30.7365 0 30Q0 29.2635 0.0361363 28.528Q0.0722726 27.7924 0.144458 27.0595Q0.216644 26.3266 0.324705 25.5981Q0.432766 24.8696 0.576441 24.1473Q0.720117 23.425 0.899062 22.7106Q1.07801 21.9962 1.29179 21.2915Q1.50557 20.5867 1.75368 19.8933Q2.00178 19.1999 2.28361 18.5195Q2.56544 17.8391 2.88032 17.1733Q3.1952 16.5076 3.54236 15.8581Q3.88953 15.2086 4.26814 14.5769Q4.64676 13.9452 5.05591 13.3329Q5.46507 12.7205 5.90377 12.129Q6.34248 11.5375 6.80969 10.9682Q7.27689 10.3989 7.77146 9.85323Q8.26604 9.30755 8.7868 8.7868Q9.30755 8.26604 9.85323 7.77146Q10.3989 7.27689 10.9682 6.80969Q11.5375 6.34248 12.129 5.90377Q12.7205 5.46507 13.3329 5.05591Q13.9452 4.64676 14.5769 4.26814Q15.2086 3.88953 15.8581 3.54236Q16.5076 3.1952 17.1733 2.88032Q17.8391 2.56544 18.5195 2.28361Q19.1999 2.00178 19.8933 1.75368Q20.5867 1.50557 21.2915 1.29179Q21.9962 1.07801 22.7106 0.899062Q23.425 0.720117 24.1473 0.576441Q24.8696 0.432766 25.5981 0.324705Q26.3266 0.216644 27.0595 0.144458Q27.7924 0.0722726 28.528 0.0361363Q29.2635 0 30 0Q30.7365 0 31.472 0.0361363Q32.2076 0.0722726 32.9405 0.144458Q33.6734 0.216644 34.4019 0.324705Q35.1304 0.432766 35.8527 0.576441Q36.575 0.720117 37.2894 0.899062Q38.0038 1.07801 38.7085 1.29179Q39.4133 1.50557 40.1067 1.75368Q40.8001 2.00178 41.4805 2.28361Q42.1609 2.56544 42.8266 2.88032Q43.4924 3.1952 44.1419 3.54236Q44.7914 3.88953 45.4231 4.26814Q46.0548 4.64676 46.6671 5.05591Q47.2794 5.46507 47.871 5.90377Q48.4625 6.34248 49.0318 6.80969Q49.6011 7.27689 50.1468 7.77146Q50.6924 8.26604 51.2132 8.7868Q51.734 9.30755 52.2285 9.85323Q52.7231 10.3989 53.1903 10.9682Q53.6575 11.5375 54.0962 12.129Q54.5349 12.7205 54.9441 13.3329Q55.3532 13.9452 55.7319 14.5769Q56.1105 15.2086 56.4576 15.8581Q56.8048 16.5076 57.1197 17.1733Q57.4345 17.8391 57.7164 18.5195Q57.9982 19.1999 58.2463 19.8933Q58.4944 20.5867 58.7082 21.2915Q58.922 21.9962 59.1009 22.7106Q59.2799 23.425 59.4236 24.1473Q59.5672 24.8696 59.6753 25.5981Q59.7833 26.3266 59.8555 27.0595Q59.9277 27.7924 59.9639 28.528Q60 29.2635 60 30Z" style="mix-blend-mode:normal" fill="#5eaff9" transform="translate(198, 284)"></path><path d="M60 30Q60 30.7365 59.9639 31.472Q59.9277 32.2076 59.8555 32.9405Q59.7833 33.6734 59.6753 34.4019Q59.5672 35.1304 59.4235 35.8527Q59.2799 36.575 59.1009 37.2894Q58.922 38.0038 58.7082 38.7085Q58.4944 39.4133 58.2463 40.1067Q57.9982 40.8001 57.7164 41.4805Q57.4345 42.1609 57.1197 42.8266Q56.8048 43.4924 56.4576 44.1419Q56.1105 44.7914 55.7318 45.4231Q55.3532 46.0548 54.9441 46.6671Q54.5349 47.2794 54.0962 47.871Q53.6575 48.4625 53.1903 49.0318Q52.7231 49.6011 52.2285 50.1468Q51.734 50.6924 51.2132 51.2132Q50.6924 51.734 50.1468 52.2285Q49.6011 52.7231 49.0318 53.1903Q48.4625 53.6575 47.871 54.0962Q47.2794 54.5349 46.6671 54.9441Q46.0548 55.3532 45.4231 55.7319Q44.7914 56.1105 44.1419 56.4576Q43.4924 56.8048 42.8266 57.1197Q42.1609 57.4345 41.4805 57.7164Q40.8001 57.9982 40.1067 58.2463Q39.4133 58.4944 38.7085 58.7082Q38.0038 58.922 37.2894 59.1009Q36.575 59.2799 35.8527 59.4236Q35.1304 59.5672 34.4019 59.6753Q33.6734 59.7833 32.9405 59.8555Q32.2076 59.9277 31.472 59.9639Q30.7365 60 30 60Q29.2635 60 28.528 59.9639Q27.7924 59.9277 27.0595 59.8555Q26.3266 59.7833 25.5981 59.6753Q24.8696 59.5672 24.1473 59.4235Q23.425 59.2799 22.7106 59.1009Q21.9962 58.922 21.2915 58.7082Q20.5867 58.4944 19.8933 58.2463Q19.1999 57.9982 18.5195 57.7164Q17.8391 57.4345 17.1733 57.1197Q16.5076 56.8048 15.8581 56.4576Q15.2086 56.1105 14.5769 55.7318Q13.9452 55.3532 13.3329 54.9441Q12.7205 54.5349 12.129 54.0962Q11.5375 53.6575 10.9682 53.1903Q10.3989 52.7231 9.85323 52.2285Q9.30755 51.734 8.7868 51.2132Q8.26604 50.6924 7.77146 50.1468Q7.27689 49.6011 6.80969 49.0318Q6.34248 48.4625 5.90377 47.871Q5.46507 47.2794 5.05591 46.6671Q4.64676 46.0548 4.26814 45.4231Q3.88953 44.7914 3.54236 44.1419Q3.1952 43.4924 2.88032 42.8266Q2.56544 42.1609 2.28361 41.4805Q2.00178 40.8001 1.75368 40.1067Q1.50557 39.4133 1.29179 38.7085Q1.07801 38.0038 0.899062 37.2894Q0.720117 36.575 0.576441 35.8527Q0.432766 35.1304 0.324705 34.4019Q0.216644 33.6734 0.144458 32.9405Q0.0722726 32.2076 0.0361363 31.472Q0 30.7365 0 30Q0 29.2635 0.0361363 28.528Q0.0722726 27.7924 0.144458 27.0595Q0.216644 26.3266 0.324705 25.5981Q0.432766 24.8696 0.576441 24.1473Q0.720117 23.425 0.899062 22.7106Q1.07801 21.9962 1.29179 21.2915Q1.50557 20.5867 1.75368 19.8933Q2.00178 19.1999 2.28361 18.5195Q2.56544 17.8391 2.88032 17.1733Q3.1952 16.5076 3.54236 15.8581Q3.88953 15.2086 4.26814 14.5769Q4.64676 13.9452 5.05591 13.3329Q5.46507 12.7205 5.90377 12.129Q6.34248 11.5375 6.80969 10.9682Q7.27689 10.3989 7.77146 9.85323Q8.26604 9.30755 8.7868 8.7868Q9.30755 8.26604 9.85323 7.77146Q10.3989 7.27689 10.9682 6.80969Q11.5375 6.34248 12.129 5.90377Q12.7205 5.46507 13.3329 5.05591Q13.9452 4.64676 14.5769 4.26814Q15.2086 3.88953 15.8581 3.54236Q16.5076 3.1952 17.1733 2.88032Q17.8391 2.56544 18.5195 2.28361Q19.1999 2.00178 19.8933 1.75368Q20.5867 1.50557 21.2915 1.29179Q21.9962 1.07801 22.7106 0.899062Q23.425 0.720117 24.1473 0.576441Q24.8696 0.432766 25.5981 0.324705Q26.3266 0.216644 27.0595 0.144458Q27.7924 0.0722726 28.528 0.0361363Q29.2635 0 30 0Q30.7365 0 31.472 0.0361363Q32.2076 0.0722726 32.9405 0.144458Q33.6734 0.216644 34.4019 0.324705Q35.1304 0.432766 35.8527 0.576441Q36.575 0.720117 37.2894 0.899062Q38.0038 1.07801 38.7085 1.29179Q39.4133 1.50557 40.1067 1.75368Q40.8001 2.00178 41.4805 2.28361Q42.1609 2.56544 42.8266 2.88032Q43.4924 3.1952 44.1419 3.54236Q44.7914 3.88953 45.4231 4.26814Q46.0548 4.64676 46.6671 5.05591Q47.2794 5.46507 47.871 5.90377Q48.4625 6.34248 49.0318 6.80969Q49.6011 7.27689 50.1468 7.77146Q50.6924 8.26604 51.2132 8.7868Q51.734 9.30755 52.2285 9.85323Q52.7231 10.3989 53.1903 10.9682Q53.6575 11.5375 54.0962 12.129Q54.5349 12.7205 54.9441 13.3329Q55.3532 13.9452 55.7319 14.5769Q56.1105 15.2086 56.4576 15.8581Q56.8048 16.5076 57.1197 17.1733Q57.4345 17.8391 57.7164 18.5195Q57.9982 19.1999 58.2463 19.8933Q58.4944 20.5867 58.7082 21.2915Q58.922 21.9962 59.1009 22.7106Q59.2799 23.425 59.4236 24.1473Q59.5672 24.8696 59.6753 25.5981Q59.7833 26.3266 59.8555 27.0595Q59.9277 27.7924 59.9639 28.528Q60 29.2635 60 30Z" style="mix-blend-mode:normal" fill="#5eaff9" transform="translate(161, 220)"></path><path d="M60 30Q60 30.7365 59.9639 31.472Q59.9277 32.2076 59.8555 32.9405Q59.7833 33.6734 59.6753 34.4019Q59.5672 35.1304 59.4235 35.8527Q59.2799 36.575 59.1009 37.2894Q58.922 38.0038 58.7082 38.7085Q58.4944 39.4133 58.2463 40.1067Q57.9982 40.8001 57.7164 41.4805Q57.4345 42.1609 57.1197 42.8266Q56.8048 43.4924 56.4576 44.1419Q56.1105 44.7914 55.7318 45.4231Q55.3532 46.0548 54.9441 46.6671Q54.5349 47.2794 54.0962 47.871Q53.6575 48.4625 53.1903 49.0318Q52.7231 49.6011 52.2285 50.1468Q51.734 50.6924 51.2132 51.2132Q50.6924 51.734 50.1468 52.2285Q49.6011 52.7231 49.0318 53.1903Q48.4625 53.6575 47.871 54.0962Q47.2794 54.5349 46.6671 54.9441Q46.0548 55.3532 45.4231 55.7319Q44.7914 56.1105 44.1419 56.4576Q43.4924 56.8048 42.8266 57.1197Q42.1609 57.4345 41.4805 57.7164Q40.8001 57.9982 40.1067 58.2463Q39.4133 58.4944 38.7085 58.7082Q38.0038 58.922 37.2894 59.1009Q36.575 59.2799 35.8527 59.4236Q35.1304 59.5672 34.4019 59.6753Q33.6734 59.7833 32.9405 59.8555Q32.2076 59.9277 31.472 59.9639Q30.7365 60 30 60Q29.2635 60 28.528 59.9639Q27.7924 59.9277 27.0595 59.8555Q26.3266 59.7833 25.5981 59.6753Q24.8696 59.5672 24.1473 59.4235Q23.425 59.2799 22.7106 59.1009Q21.9962 58.922 21.2915 58.7082Q20.5867 58.4944 19.8933 58.2463Q19.1999 57.9982 18.5195 57.7164Q17.8391 57.4345 17.1733 57.1197Q16.5076 56.8048 15.8581 56.4576Q15.2086 56.1105 14.5769 55.7318Q13.9452 55.3532 13.3329 54.9441Q12.7205 54.5349 12.129 54.0962Q11.5375 53.6575 10.9682 53.1903Q10.3989 52.7231 9.85323 52.2285Q9.30755 51.734 8.7868 51.2132Q8.26604 50.6924 7.77146 50.1468Q7.27689 49.6011 6.80969 49.0318Q6.34248 48.4625 5.90377 47.871Q5.46507 47.2794 5.05591 46.6671Q4.64676 46.0548 4.26814 45.4231Q3.88953 44.7914 3.54236 44.1419Q3.1952 43.4924 2.88032 42.8266Q2.56544 42.1609 2.28361 41.4805Q2.00178 40.8001 1.75368 40.1067Q1.50557 39.4133 1.29179 38.7085Q1.07801 38.0038 0.899062 37.2894Q0.720117 36.575 0.576441 35.8527Q0.432766 35.1304 0.324705 34.4019Q0.216644 33.6734 0.144458 32.9405Q0.0722726 32.2076 0.0361363 31.472Q0 30.7365 0 30Q0 29.2635 0.0361363 28.528Q0.0722726 27.7924 0.144458 27.0595Q0.216644 26.3266 0.324705 25.5981Q0.432766 24.8696 0.576441 24.1473Q0.720117 23.425 0.899062 22.7106Q1.07801 21.9962 1.29179 21.2915Q1.50557 20.5867 1.75368 19.8933Q2.00178 19.1999 2.28361 18.5195Q2.56544 17.8391 2.88032 17.1733Q3.1952 16.5076 3.54236 15.8581Q3.88953 15.2086 4.26814 14.5769Q4.64676 13.9452 5.05591 13.3329Q5.46507 12.7205 5.90377 12.129Q6.34248 11.5375 6.80969 10.9682Q7.27689 10.3989 7.77146 9.85323Q8.26604 9.30755 8.7868 8.7868Q9.30755 8.26604 9.85323 7.77146Q10.3989 7.27689 10.9682 6.80969Q11.5375 6.34248 12.129 5.90377Q12.7205 5.46507 13.3329 5.05591Q13.9452 4.64676 14.5769 4.26814Q15.2086 3.88953 15.8581 3.54236Q16.5076 3.1952 17.1733 2.88032Q17.8391 2.56544 18.5195 2.28361Q19.1999 2.00178 19.8933 1.75368Q20.5867 1.50557 21.2915 1.29179Q21.9962 1.07801 22.7106 0.899062Q23.425 0.720117 24.1473 0.576441Q24.8696 0.432766 25.5981 0.324705Q26.3266 0.216644 27.0595 0.144458Q27.7924 0.0722726 28.528 0.0361363Q29.2635 0 30 0Q30.7365 0 31.472 0.0361363Q32.2076 0.0722726 32.9405 0.144458Q33.6734 0.216644 34.4019 0.324705Q35.1304 0.432766 35.8527 0.576441Q36.575 0.720117 37.2894 0.899062Q38.0038 1.07801 38.7085 1.29179Q39.4133 1.50557 40.1067 1.75368Q40.8001 2.00178 41.4805 2.28361Q42.1609 2.56544 42.8266 2.88032Q43.4924 3.1952 44.1419 3.54236Q44.7914 3.88953 45.4231 4.26814Q46.0548 4.64676 46.6671 5.05591Q47.2794 5.46507 47.871 5.90377Q48.4625 6.34248 49.0318 6.80969Q49.6011 7.27689 50.1468 7.77146Q50.6924 8.26604 51.2132 8.7868Q51.734 9.30755 52.2285 9.85323Q52.7231 10.3989 53.1903 10.9682Q53.6575 11.5375 54.0962 12.129Q54.5349 12.7205 54.9441 13.3329Q55.3532 13.9452 55.7319 14.5769Q56.1105 15.2086 56.4576 15.8581Q56.8048 16.5076 57.1197 17.1733Q57.4345 17.8391 57.7164 18.5195Q57.9982 19.1999 58.2463 19.8933Q58.4944 20.5867 58.7082 21.2915Q58.922 21.9962 59.1009 22.7106Q59.2799 23.425 59.4236 24.1473Q59.5672 24.8696 59.6753 25.5981Q59.7833 26.3266 59.8555 27.0595Q59.9277 27.7924 59.9639 28.528Q60 29.2635 60 30Z" style="mix-blend-mode:normal" fill="#5eaff9" transform="translate(86, 220)"></path><path d="M60 30Q60 30.7365 59.9639 31.472Q59.9277 32.2076 59.8555 32.9405Q59.7833 33.6734 59.6753 34.4019Q59.5672 35.1304 59.4235 35.8527Q59.2799 36.575 59.1009 37.2894Q58.922 38.0038 58.7082 38.7085Q58.4944 39.4133 58.2463 40.1067Q57.9982 40.8001 57.7164 41.4805Q57.4345 42.1609 57.1197 42.8266Q56.8048 43.4924 56.4576 44.1419Q56.1105 44.7914 55.7318 45.4231Q55.3532 46.0548 54.9441 46.6671Q54.5349 47.2794 54.0962 47.871Q53.6575 48.4625 53.1903 49.0318Q52.7231 49.6011 52.2285 50.1468Q51.734 50.6924 51.2132 51.2132Q50.6924 51.734 50.1468 52.2285Q49.6011 52.7231 49.0318 53.1903Q48.4625 53.6575 47.871 54.0962Q47.2794 54.5349 46.6671 54.9441Q46.0548 55.3532 45.4231 55.7319Q44.7914 56.1105 44.1419 56.4576Q43.4924 56.8048 42.8266 57.1197Q42.1609 57.4345 41.4805 57.7164Q40.8001 57.9982 40.1067 58.2463Q39.4133 58.4944 38.7085 58.7082Q38.0038 58.922 37.2894 59.1009Q36.575 59.2799 35.8527 59.4236Q35.1304 59.5672 34.4019 59.6753Q33.6734 59.7833 32.9405 59.8555Q32.2076 59.9277 31.472 59.9639Q30.7365 60 30 60Q29.2635 60 28.528 59.9639Q27.7924 59.9277 27.0595 59.8555Q26.3266 59.7833 25.5981 59.6753Q24.8696 59.5672 24.1473 59.4235Q23.425 59.2799 22.7106 59.1009Q21.9962 58.922 21.2915 58.7082Q20.5867 58.4944 19.8933 58.2463Q19.1999 57.9982 18.5195 57.7164Q17.8391 57.4345 17.1733 57.1197Q16.5076 56.8048 15.8581 56.4576Q15.2086 56.1105 14.5769 55.7318Q13.9452 55.3532 13.3329 54.9441Q12.7205 54.5349 12.129 54.0962Q11.5375 53.6575 10.9682 53.1903Q10.3989 52.7231 9.85323 52.2285Q9.30755 51.734 8.7868 51.2132Q8.26604 50.6924 7.77146 50.1468Q7.27689 49.6011 6.80969 49.0318Q6.34248 48.4625 5.90377 47.871Q5.46507 47.2794 5.05591 46.6671Q4.64676 46.0548 4.26814 45.4231Q3.88953 44.7914 3.54236 44.1419Q3.1952 43.4924 2.88032 42.8266Q2.56544 42.1609 2.28361 41.4805Q2.00178 40.8001 1.75368 40.1067Q1.50557 39.4133 1.29179 38.7085Q1.07801 38.0038 0.899062 37.2894Q0.720117 36.575 0.576441 35.8527Q0.432766 35.1304 0.324705 34.4019Q0.216644 33.6734 0.144458 32.9405Q0.0722726 32.2076 0.0361363 31.472Q0 30.7365 0 30Q0 29.2635 0.0361363 28.528Q0.0722726 27.7924 0.144458 27.0595Q0.216644 26.3266 0.324705 25.5981Q0.432766 24.8696 0.576441 24.1473Q0.720117 23.425 0.899062 22.7106Q1.07801 21.9962 1.29179 21.2915Q1.50557 20.5867 1.75368 19.8933Q2.00178 19.1999 2.28361 18.5195Q2.56544 17.8391 2.88032 17.1733Q3.1952 16.5076 3.54236 15.8581Q3.88953 15.2086 4.26814 14.5769Q4.64676 13.9452 5.05591 13.3329Q5.46507 12.7205 5.90377 12.129Q6.34248 11.5375 6.80969 10.9682Q7.27689 10.3989 7.77146 9.85323Q8.26604 9.30755 8.7868 8.7868Q9.30755 8.26604 9.85323 7.77146Q10.3989 7.27689 10.9682 6.80969Q11.5375 6.34248 12.129 5.90377Q12.7205 5.46507 13.3329 5.05591Q13.9452 4.64676 14.5769 4.26814Q15.2086 3.88953 15.8581 3.54236Q16.5076 3.1952 17.1733 2.88032Q17.8391 2.56544 18.5195 2.28361Q19.1999 2.00178 19.8933 1.75368Q20.5867 1.50557 21.2915 1.29179Q21.9962 1.07801 22.7106 0.899062Q23.425 0.720117 24.1473 0.576441Q24.8696 0.432766 25.5981 0.324705Q26.3266 0.216644 27.0595 0.144458Q27.7924 0.0722726 28.528 0.0361363Q29.2635 0 30 0Q30.7365 0 31.472 0.0361363Q32.2076 0.0722726 32.9405 0.144458Q33.6734 0.216644 34.4019 0.324705Q35.1304 0.432766 35.8527 0.576441Q36.575 0.720117 37.2894 0.899062Q38.0038 1.07801 38.7085 1.29179Q39.4133 1.50557 40.1067 1.75368Q40.8001 2.00178 41.4805 2.28361Q42.1609 2.56544 42.8266 2.88032Q43.4924 3.1952 44.1419 3.54236Q44.7914 3.88953 45.4231 4.26814Q46.0548 4.64676 46.6671 5.05591Q47.2794 5.46507 47.871 5.90377Q48.4625 6.34248 49.0318 6.80969Q49.6011 7.27689 50.1468 7.77146Q50.6924 8.26604 51.2132 8.7868Q51.734 9.30755 52.2285 9.85323Q52.7231 10.3989 53.1903 10.9682Q53.6575 11.5375 54.0962 12.129Q54.5349 12.7205 54.9441 13.3329Q55.3532 13.9452 55.7319 14.5769Q56.1105 15.2086 56.4576 15.8581Q56.8048 16.5076 57.1197 17.1733Q57.4345 17.8391 57.7164 18.5195Q57.9982 19.1999 58.2463 19.8933Q58.4944 20.5867 58.7082 21.2915Q58.922 21.9962 59.1009 22.7106Q59.2799 23.425 59.4236 24.1473Q59.5672 24.8696 59.6753 25.5981Q59.7833 26.3266 59.8555 27.0595Q59.9277 27.7924 59.9639 28.528Q60 29.2635 60 30Z" style="mix-blend-mode:normal" fill="#5eaff9" transform="translate(48, 284)"></path><path d="M0 -0.5L145.774 -0.5L146.274 -0.5L146.274 0.5L145.774 0.5L-0.5 0.5L-0.5 -0.5L0 -0.5Z" style="mix-blend-mode:normal" fill="#5eaff9" transform="matrix(-0.5144957657962606, 0.8574929194913037, -0.8574929194913037, -0.5144957657962606, 153.00000300437893, 188.99999841874524)"></path><path d="M-145.774 -0.5L0 -0.5L0.5 -0.5L0.5 0.5L0 0.5L-146.274 0.5L-146.274 -0.5L-145.774 -0.5Z" style="mix-blend-mode:normal" fill="#5eaff9" transform="matrix(-0.514495683745197, -0.8574929687219378, 0.8574929687219378, -0.514495683745197, 153.00001002891827, 188.9999930295453)"></path><path d="M-74.4312 -0.5L0 -0.5L0.5 -0.5L0.5 0.5L0 0.5L-74.9312 0.5L-74.9312 -0.5L-74.4312 -0.5Z" style="mix-blend-mode:normal" fill="#5eaff9" transform="matrix(0.510538754914569, 0.8598547433899993, -0.8598547433899993, 0.510538754914569, 152.99999852430585, 313.9999973859085)"></path><path d="M-144.755 -0.5L0 -0.5L0.5 -0.5L0.5 0.5L0 0.5L-145.255 0.5L-145.255 -0.5L-144.755 -0.5Z" style="mix-blend-mode:normal" fill="#5eaff9" transform="matrix(-0.5043004904782715, 0.8635282365408642, -0.8635282365408642, -0.5043004904782715, 322.9999981628827, 314.0000030618685)"></path><path d="M0 -0.5L73.0616 -0.5L73.5616 -0.5L73.5616 0.5L73.0616 0.5L-0.5 0.5L-0.5 -0.5L0 -0.5Z" style="mix-blend-mode:normal" fill="#5eaff9" transform="matrix(0.5064218545758798, 0.862285860494028, -0.862285860494028, 0.5064218545758798, 358.99999848797586, 250.99999742547516)"></path><path d="M-77.666 -0.5L0 -0.5L0.5 -0.5L0.5 0.5L0 0.5L-78.166 0.5L-78.166 -0.5L-77.666 -0.5Z" style="mix-blend-mode:normal" fill="#5eaff9" transform="matrix(0.5665288201589601, 0.8240419260749399, -0.8240419260749399, 0.5665288201589601, 440.0000022319417, 251.0000037003192)"></path><path d="M0 -0.5L76.844 -0.5L77.344 -0.5L77.344 0.5L76.844 0.5L-0.5 0.5L-0.5 -0.5L0 -0.5Z" style="mix-blend-mode:normal" fill="#5eaff9" transform="matrix(-0.5725886641470114, 0.8198428030362533, -0.8198428030362533, -0.5725886641470114, 440.0000008759058, 251.0000031253876)"></path><text font-size="20" font-family="Montserrat" x="0, 11.479996, 25.939987, 39.319977, " y="19, " transform="translate(127, 115)">
			TREE
	</text><text font-size="20" font-family="Montserrat" x="0, 15.459991, 29.919983, 44.259964, 58.619949, " y="19, " transform="translate(358, 115)">
			GRAPH
	</text><path d="M60 30Q60 30.7365 59.9639 31.472Q59.9277 32.2076 59.8555 32.9405Q59.7833 33.6734 59.6753 34.4019Q59.5672 35.1304 59.4235 35.8527Q59.2799 36.575 59.1009 37.2894Q58.922 38.0038 58.7082 38.7085Q58.4944 39.4133 58.2463 40.1067Q57.9982 40.8001 57.7164 41.4805Q57.4345 42.1609 57.1197 42.8266Q56.8048 43.4924 56.4576 44.1419Q56.1105 44.7914 55.7318 45.4231Q55.3532 46.0548 54.9441 46.6671Q54.5349 47.2794 54.0962 47.871Q53.6575 48.4625 53.1903 49.0318Q52.7231 49.6011 52.2285 50.1468Q51.734 50.6924 51.2132 51.2132Q50.6924 51.734 50.1468 52.2285Q49.6011 52.7231 49.0318 53.1903Q48.4625 53.6575 47.871 54.0962Q47.2794 54.5349 46.6671 54.9441Q46.0548 55.3532 45.4231 55.7319Q44.7914 56.1105 44.1419 56.4576Q43.4924 56.8048 42.8266 57.1197Q42.1609 57.4345 41.4805 57.7164Q40.8001 57.9982 40.1067 58.2463Q39.4133 58.4944 38.7085 58.7082Q38.0038 58.922 37.2894 59.1009Q36.575 59.2799 35.8527 59.4236Q35.1304 59.5672 34.4019 59.6753Q33.6734 59.7833 32.9405 59.8555Q32.2076 59.9277 31.472 59.9639Q30.7365 60 30 60Q29.2635 60 28.528 59.9639Q27.7924 59.9277 27.0595 59.8555Q26.3266 59.7833 25.5981 59.6753Q24.8696 59.5672 24.1473 59.4235Q23.425 59.2799 22.7106 59.1009Q21.9962 58.922 21.2915 58.7082Q20.5867 58.4944 19.8933 58.2463Q19.1999 57.9982 18.5195 57.7164Q17.8391 57.4345 17.1733 57.1197Q16.5076 56.8048 15.8581 56.4576Q15.2086 56.1105 14.5769 55.7318Q13.9452 55.3532 13.3329 54.9441Q12.7205 54.5349 12.129 54.0962Q11.5375 53.6575 10.9682 53.1903Q10.3989 52.7231 9.85323 52.2285Q9.30755 51.734 8.7868 51.2132Q8.26604 50.6924 7.77146 50.1468Q7.27689 49.6011 6.80969 49.0318Q6.34248 48.4625 5.90377 47.871Q5.46507 47.2794 5.05591 46.6671Q4.64676 46.0548 4.26814 45.4231Q3.88953 44.7914 3.54236 44.1419Q3.1952 43.4924 2.88032 42.8266Q2.56544 42.1609 2.28361 41.4805Q2.00178 40.8001 1.75368 40.1067Q1.50557 39.4133 1.29179 38.7085Q1.07801 38.0038 0.899062 37.2894Q0.720117 36.575 0.576441 35.8527Q0.432766 35.1304 0.324705 34.4019Q0.216644 33.6734 0.144458 32.9405Q0.0722726 32.2076 0.0361363 31.472Q0 30.7365 0 30Q0 29.2635 0.0361363 28.528Q0.0722726 27.7924 0.144458 27.0595Q0.216644 26.3266 0.324705 25.5981Q0.432766 24.8696 0.576441 24.1473Q0.720117 23.425 0.899062 22.7106Q1.07801 21.9962 1.29179 21.2915Q1.50557 20.5867 1.75368 19.8933Q2.00178 19.1999 2.28361 18.5195Q2.56544 17.8391 2.88032 17.1733Q3.1952 16.5076 3.54236 15.8581Q3.88953 15.2086 4.26814 14.5769Q4.64676 13.9452 5.05591 13.3329Q5.46507 12.7205 5.90377 12.129Q6.34248 11.5375 6.80969 10.9682Q7.27689 10.3989 7.77146 9.85323Q8.26604 9.30755 8.7868 8.7868Q9.30755 8.26604 9.85323 7.77146Q10.3989 7.27689 10.9682 6.80969Q11.5375 6.34248 12.129 5.90377Q12.7205 5.46507 13.3329 5.05591Q13.9452 4.64676 14.5769 4.26814Q15.2086 3.88953 15.8581 3.54236Q16.5076 3.1952 17.1733 2.88032Q17.8391 2.56544 18.5195 2.28361Q19.1999 2.00178 19.8933 1.75368Q20.5867 1.50557 21.2915 1.29179Q21.9962 1.07801 22.7106 0.899062Q23.425 0.720117 24.1473 0.576441Q24.8696 0.432766 25.5981 0.324705Q26.3266 0.216644 27.0595 0.144458Q27.7924 0.0722726 28.528 0.0361363Q29.2635 0 30 0Q30.7365 0 31.472 0.0361363Q32.2076 0.0722726 32.9405 0.144458Q33.6734 0.216644 34.4019 0.324705Q35.1304 0.432766 35.8527 0.576441Q36.575 0.720117 37.2894 0.899062Q38.0038 1.07801 38.7085 1.29179Q39.4133 1.50557 40.1067 1.75368Q40.8001 2.00178 41.4805 2.28361Q42.1609 2.56544 42.8266 2.88032Q43.4924 3.1952 44.1419 3.54236Q44.7914 3.88953 45.4231 4.26814Q46.0548 4.64676 46.6671 5.05591Q47.2794 5.46507 47.871 5.90377Q48.4625 6.34248 49.0318 6.80969Q49.6011 7.27689 50.1468 7.77146Q50.6924 8.26604 51.2132 8.7868Q51.734 9.30755 52.2285 9.85323Q52.7231 10.3989 53.1903 10.9682Q53.6575 11.5375 54.0962 12.129Q54.5349 12.7205 54.9441 13.3329Q55.3532 13.9452 55.7319 14.5769Q56.1105 15.2086 56.4576 15.8581Q56.8048 16.5076 57.1197 17.1733Q57.4345 17.8391 57.7164 18.5195Q57.9982 19.1999 58.2463 19.8933Q58.4944 20.5867 58.7082 21.2915Q58.922 21.9962 59.1009 22.7106Q59.2799 23.425 59.4236 24.1473Q59.5672 24.8696 59.6753 25.5981Q59.7833 26.3266 59.8555 27.0595Q59.9277 27.7924 59.9639 28.528Q60 29.2635 60 30Z" style="mix-blend-mode:normal" fill="#5eaff9" transform="translate(367, 161)"></path><path d="M60 30Q60 30.7365 59.9639 31.472Q59.9277 32.2076 59.8555 32.9405Q59.7833 33.6734 59.6753 34.4019Q59.5672 35.1304 59.4235 35.8527Q59.2799 36.575 59.1009 37.2894Q58.922 38.0038 58.7082 38.7085Q58.4944 39.4133 58.2463 40.1067Q57.9982 40.8001 57.7164 41.4805Q57.4345 42.1609 57.1197 42.8266Q56.8048 43.4924 56.4576 44.1419Q56.1105 44.7914 55.7318 45.4231Q55.3532 46.0548 54.9441 46.6671Q54.5349 47.2794 54.0962 47.871Q53.6575 48.4625 53.1903 49.0318Q52.7231 49.6011 52.2285 50.1468Q51.734 50.6924 51.2132 51.2132Q50.6924 51.734 50.1468 52.2285Q49.6011 52.7231 49.0318 53.1903Q48.4625 53.6575 47.871 54.0962Q47.2794 54.5349 46.6671 54.9441Q46.0548 55.3532 45.4231 55.7319Q44.7914 56.1105 44.1419 56.4576Q43.4924 56.8048 42.8266 57.1197Q42.1609 57.4345 41.4805 57.7164Q40.8001 57.9982 40.1067 58.2463Q39.4133 58.4944 38.7085 58.7082Q38.0038 58.922 37.2894 59.1009Q36.575 59.2799 35.8527 59.4236Q35.1304 59.5672 34.4019 59.6753Q33.6734 59.7833 32.9405 59.8555Q32.2076 59.9277 31.472 59.9639Q30.7365 60 30 60Q29.2635 60 28.528 59.9639Q27.7924 59.9277 27.0595 59.8555Q26.3266 59.7833 25.5981 59.6753Q24.8696 59.5672 24.1473 59.4235Q23.425 59.2799 22.7106 59.1009Q21.9962 58.922 21.2915 58.7082Q20.5867 58.4944 19.8933 58.2463Q19.1999 57.9982 18.5195 57.7164Q17.8391 57.4345 17.1733 57.1197Q16.5076 56.8048 15.8581 56.4576Q15.2086 56.1105 14.5769 55.7318Q13.9452 55.3532 13.3329 54.9441Q12.7205 54.5349 12.129 54.0962Q11.5375 53.6575 10.9682 53.1903Q10.3989 52.7231 9.85323 52.2285Q9.30755 51.734 8.7868 51.2132Q8.26604 50.6924 7.77146 50.1468Q7.27689 49.6011 6.80969 49.0318Q6.34248 48.4625 5.90377 47.871Q5.46507 47.2794 5.05591 46.6671Q4.64676 46.0548 4.26814 45.4231Q3.88953 44.7914 3.54236 44.1419Q3.1952 43.4924 2.88032 42.8266Q2.56544 42.1609 2.28361 41.4805Q2.00178 40.8001 1.75368 40.1067Q1.50557 39.4133 1.29179 38.7085Q1.07801 38.0038 0.899062 37.2894Q0.720117 36.575 0.576441 35.8527Q0.432766 35.1304 0.324705 34.4019Q0.216644 33.6734 0.144458 32.9405Q0.0722726 32.2076 0.0361363 31.472Q0 30.7365 0 30Q0 29.2635 0.0361363 28.528Q0.0722726 27.7924 0.144458 27.0595Q0.216644 26.3266 0.324705 25.5981Q0.432766 24.8696 0.576441 24.1473Q0.720117 23.425 0.899062 22.7106Q1.07801 21.9962 1.29179 21.2915Q1.50557 20.5867 1.75368 19.8933Q2.00178 19.1999 2.28361 18.5195Q2.56544 17.8391 2.88032 17.1733Q3.1952 16.5076 3.54236 15.8581Q3.88953 15.2086 4.26814 14.5769Q4.64676 13.9452 5.05591 13.3329Q5.46507 12.7205 5.90377 12.129Q6.34248 11.5375 6.80969 10.9682Q7.27689 10.3989 7.77146 9.85323Q8.26604 9.30755 8.7868 8.7868Q9.30755 8.26604 9.85323 7.77146Q10.3989 7.27689 10.9682 6.80969Q11.5375 6.34248 12.129 5.90377Q12.7205 5.46507 13.3329 5.05591Q13.9452 4.64676 14.5769 4.26814Q15.2086 3.88953 15.8581 3.54236Q16.5076 3.1952 17.1733 2.88032Q17.8391 2.56544 18.5195 2.28361Q19.1999 2.00178 19.8933 1.75368Q20.5867 1.50557 21.2915 1.29179Q21.9962 1.07801 22.7106 0.899062Q23.425 0.720117 24.1473 0.576441Q24.8696 0.432766 25.5981 0.324705Q26.3266 0.216644 27.0595 0.144458Q27.7924 0.0722726 28.528 0.0361363Q29.2635 0 30 0Q30.7365 0 31.472 0.0361363Q32.2076 0.0722726 32.9405 0.144458Q33.6734 0.216644 34.4019 0.324705Q35.1304 0.432766 35.8527 0.576441Q36.575 0.720117 37.2894 0.899062Q38.0038 1.07801 38.7085 1.29179Q39.4133 1.50557 40.1067 1.75368Q40.8001 2.00178 41.4805 2.28361Q42.1609 2.56544 42.8266 2.88032Q43.4924 3.1952 44.1419 3.54236Q44.7914 3.88953 45.4231 4.26814Q46.0548 4.64676 46.6671 5.05591Q47.2794 5.46507 47.871 5.90377Q48.4625 6.34248 49.0318 6.80969Q49.6011 7.27689 50.1468 7.77146Q50.6924 8.26604 51.2132 8.7868Q51.734 9.30755 52.2285 9.85323Q52.7231 10.3989 53.1903 10.9682Q53.6575 11.5375 54.0962 12.129Q54.5349 12.7205 54.9441 13.3329Q55.3532 13.9452 55.7319 14.5769Q56.1105 15.2086 56.4576 15.8581Q56.8048 16.5076 57.1197 17.1733Q57.4345 17.8391 57.7164 18.5195Q57.9982 19.1999 58.2463 19.8933Q58.4944 20.5867 58.7082 21.2915Q58.922 21.9962 59.1009 22.7106Q59.2799 23.425 59.4236 24.1473Q59.5672 24.8696 59.6753 25.5981Q59.7833 26.3266 59.8555 27.0595Q59.9277 27.7924 59.9639 28.528Q60 29.2635 60 30Z" style="mix-blend-mode:normal" fill="#5eaff9" transform="translate(367, 286)"></path><path d="M60 30Q60 30.7365 59.9639 31.472Q59.9277 32.2076 59.8555 32.9405Q59.7833 33.6734 59.6753 34.4019Q59.5672 35.1304 59.4235 35.8527Q59.2799 36.575 59.1009 37.2894Q58.922 38.0038 58.7082 38.7085Q58.4944 39.4133 58.2463 40.1067Q57.9982 40.8001 57.7164 41.4805Q57.4345 42.1609 57.1197 42.8266Q56.8048 43.4924 56.4576 44.1419Q56.1105 44.7914 55.7318 45.4231Q55.3532 46.0548 54.9441 46.6671Q54.5349 47.2794 54.0962 47.871Q53.6575 48.4625 53.1903 49.0318Q52.7231 49.6011 52.2285 50.1468Q51.734 50.6924 51.2132 51.2132Q50.6924 51.734 50.1468 52.2285Q49.6011 52.7231 49.0318 53.1903Q48.4625 53.6575 47.871 54.0962Q47.2794 54.5349 46.6671 54.9441Q46.0548 55.3532 45.4231 55.7319Q44.7914 56.1105 44.1419 56.4576Q43.4924 56.8048 42.8266 57.1197Q42.1609 57.4345 41.4805 57.7164Q40.8001 57.9982 40.1067 58.2463Q39.4133 58.4944 38.7085 58.7082Q38.0038 58.922 37.2894 59.1009Q36.575 59.2799 35.8527 59.4236Q35.1304 59.5672 34.4019 59.6753Q33.6734 59.7833 32.9405 59.8555Q32.2076 59.9277 31.472 59.9639Q30.7365 60 30 60Q29.2635 60 28.528 59.9639Q27.7924 59.9277 27.0595 59.8555Q26.3266 59.7833 25.5981 59.6753Q24.8696 59.5672 24.1473 59.4235Q23.425 59.2799 22.7106 59.1009Q21.9962 58.922 21.2915 58.7082Q20.5867 58.4944 19.8933 58.2463Q19.1999 57.9982 18.5195 57.7164Q17.8391 57.4345 17.1733 57.1197Q16.5076 56.8048 15.8581 56.4576Q15.2086 56.1105 14.5769 55.7318Q13.9452 55.3532 13.3329 54.9441Q12.7205 54.5349 12.129 54.0962Q11.5375 53.6575 10.9682 53.1903Q10.3989 52.7231 9.85323 52.2285Q9.30755 51.734 8.7868 51.2132Q8.26604 50.6924 7.77146 50.1468Q7.27689 49.6011 6.80969 49.0318Q6.34248 48.4625 5.90377 47.871Q5.46507 47.2794 5.05591 46.6671Q4.64676 46.0548 4.26814 45.4231Q3.88953 44.7914 3.54236 44.1419Q3.1952 43.4924 2.88032 42.8266Q2.56544 42.1609 2.28361 41.4805Q2.00178 40.8001 1.75368 40.1067Q1.50557 39.4133 1.29179 38.7085Q1.07801 38.0038 0.899062 37.2894Q0.720117 36.575 0.576441 35.8527Q0.432766 35.1304 0.324705 34.4019Q0.216644 33.6734 0.144458 32.9405Q0.0722726 32.2076 0.0361363 31.472Q0 30.7365 0 30Q0 29.2635 0.0361363 28.528Q0.0722726 27.7924 0.144458 27.0595Q0.216644 26.3266 0.324705 25.5981Q0.432766 24.8696 0.576441 24.1473Q0.720117 23.425 0.899062 22.7106Q1.07801 21.9962 1.29179 21.2915Q1.50557 20.5867 1.75368 19.8933Q2.00178 19.1999 2.28361 18.5195Q2.56544 17.8391 2.88032 17.1733Q3.1952 16.5076 3.54236 15.8581Q3.88953 15.2086 4.26814 14.5769Q4.64676 13.9452 5.05591 13.3329Q5.46507 12.7205 5.90377 12.129Q6.34248 11.5375 6.80969 10.9682Q7.27689 10.3989 7.77146 9.85323Q8.26604 9.30755 8.7868 8.7868Q9.30755 8.26604 9.85323 7.77146Q10.3989 7.27689 10.9682 6.80969Q11.5375 6.34248 12.129 5.90377Q12.7205 5.46507 13.3329 5.05591Q13.9452 4.64676 14.5769 4.26814Q15.2086 3.88953 15.8581 3.54236Q16.5076 3.1952 17.1733 2.88032Q17.8391 2.56544 18.5195 2.28361Q19.1999 2.00178 19.8933 1.75368Q20.5867 1.50557 21.2915 1.29179Q21.9962 1.07801 22.7106 0.899062Q23.425 0.720117 24.1473 0.576441Q24.8696 0.432766 25.5981 0.324705Q26.3266 0.216644 27.0595 0.144458Q27.7924 0.0722726 28.528 0.0361363Q29.2635 0 30 0Q30.7365 0 31.472 0.0361363Q32.2076 0.0722726 32.9405 0.144458Q33.6734 0.216644 34.4019 0.324705Q35.1304 0.432766 35.8527 0.576441Q36.575 0.720117 37.2894 0.899062Q38.0038 1.07801 38.7085 1.29179Q39.4133 1.50557 40.1067 1.75368Q40.8001 2.00178 41.4805 2.28361Q42.1609 2.56544 42.8266 2.88032Q43.4924 3.1952 44.1419 3.54236Q44.7914 3.88953 45.4231 4.26814Q46.0548 4.64676 46.6671 5.05591Q47.2794 5.46507 47.871 5.90377Q48.4625 6.34248 49.0318 6.80969Q49.6011 7.27689 50.1468 7.77146Q50.6924 8.26604 51.2132 8.7868Q51.734 9.30755 52.2285 9.85323Q52.7231 10.3989 53.1903 10.9682Q53.6575 11.5375 54.0962 12.129Q54.5349 12.7205 54.9441 13.3329Q55.3532 13.9452 55.7319 14.5769Q56.1105 15.2086 56.4576 15.8581Q56.8048 16.5076 57.1197 17.1733Q57.4345 17.8391 57.7164 18.5195Q57.9982 19.1999 58.2463 19.8933Q58.4944 20.5867 58.7082 21.2915Q58.922 21.9962 59.1009 22.7106Q59.2799 23.425 59.4236 24.1473Q59.5672 24.8696 59.6753 25.5981Q59.7833 26.3266 59.8555 27.0595Q59.9277 27.7924 59.9639 28.528Q60 29.2635 60 30Z" style="mix-blend-mode:normal" fill="#5eaff9" transform="translate(405, 222)"></path><path d="M60 30Q60 30.7365 59.9639 31.472Q59.9277 32.2076 59.8555 32.9405Q59.7833 33.6734 59.6753 34.4019Q59.5672 35.1304 59.4235 35.8527Q59.2799 36.575 59.1009 37.2894Q58.922 38.0038 58.7082 38.7085Q58.4944 39.4133 58.2463 40.1067Q57.9982 40.8001 57.7164 41.4805Q57.4345 42.1609 57.1197 42.8266Q56.8048 43.4924 56.4576 44.1419Q56.1105 44.7914 55.7318 45.4231Q55.3532 46.0548 54.9441 46.6671Q54.5349 47.2794 54.0962 47.871Q53.6575 48.4625 53.1903 49.0318Q52.7231 49.6011 52.2285 50.1468Q51.734 50.6924 51.2132 51.2132Q50.6924 51.734 50.1468 52.2285Q49.6011 52.7231 49.0318 53.1903Q48.4625 53.6575 47.871 54.0962Q47.2794 54.5349 46.6671 54.9441Q46.0548 55.3532 45.4231 55.7319Q44.7914 56.1105 44.1419 56.4576Q43.4924 56.8048 42.8266 57.1197Q42.1609 57.4345 41.4805 57.7164Q40.8001 57.9982 40.1067 58.2463Q39.4133 58.4944 38.7085 58.7082Q38.0038 58.922 37.2894 59.1009Q36.575 59.2799 35.8527 59.4236Q35.1304 59.5672 34.4019 59.6753Q33.6734 59.7833 32.9405 59.8555Q32.2076 59.9277 31.472 59.9639Q30.7365 60 30 60Q29.2635 60 28.528 59.9639Q27.7924 59.9277 27.0595 59.8555Q26.3266 59.7833 25.5981 59.6753Q24.8696 59.5672 24.1473 59.4235Q23.425 59.2799 22.7106 59.1009Q21.9962 58.922 21.2915 58.7082Q20.5867 58.4944 19.8933 58.2463Q19.1999 57.9982 18.5195 57.7164Q17.8391 57.4345 17.1733 57.1197Q16.5076 56.8048 15.8581 56.4576Q15.2086 56.1105 14.5769 55.7318Q13.9452 55.3532 13.3329 54.9441Q12.7205 54.5349 12.129 54.0962Q11.5375 53.6575 10.9682 53.1903Q10.3989 52.7231 9.85323 52.2285Q9.30755 51.734 8.7868 51.2132Q8.26604 50.6924 7.77146 50.1468Q7.27689 49.6011 6.80969 49.0318Q6.34248 48.4625 5.90377 47.871Q5.46507 47.2794 5.05591 46.6671Q4.64676 46.0548 4.26814 45.4231Q3.88953 44.7914 3.54236 44.1419Q3.1952 43.4924 2.88032 42.8266Q2.56544 42.1609 2.28361 41.4805Q2.00178 40.8001 1.75368 40.1067Q1.50557 39.4133 1.29179 38.7085Q1.07801 38.0038 0.899062 37.2894Q0.720117 36.575 0.576441 35.8527Q0.432766 35.1304 0.324705 34.4019Q0.216644 33.6734 0.144458 32.9405Q0.0722726 32.2076 0.0361363 31.472Q0 30.7365 0 30Q0 29.2635 0.0361363 28.528Q0.0722726 27.7924 0.144458 27.0595Q0.216644 26.3266 0.324705 25.5981Q0.432766 24.8696 0.576441 24.1473Q0.720117 23.425 0.899062 22.7106Q1.07801 21.9962 1.29179 21.2915Q1.50557 20.5867 1.75368 19.8933Q2.00178 19.1999 2.28361 18.5195Q2.56544 17.8391 2.88032 17.1733Q3.1952 16.5076 3.54236 15.8581Q3.88953 15.2086 4.26814 14.5769Q4.64676 13.9452 5.05591 13.3329Q5.46507 12.7205 5.90377 12.129Q6.34248 11.5375 6.80969 10.9682Q7.27689 10.3989 7.77146 9.85323Q8.26604 9.30755 8.7868 8.7868Q9.30755 8.26604 9.85323 7.77146Q10.3989 7.27689 10.9682 6.80969Q11.5375 6.34248 12.129 5.90377Q12.7205 5.46507 13.3329 5.05591Q13.9452 4.64676 14.5769 4.26814Q15.2086 3.88953 15.8581 3.54236Q16.5076 3.1952 17.1733 2.88032Q17.8391 2.56544 18.5195 2.28361Q19.1999 2.00178 19.8933 1.75368Q20.5867 1.50557 21.2915 1.29179Q21.9962 1.07801 22.7106 0.899062Q23.425 0.720117 24.1473 0.576441Q24.8696 0.432766 25.5981 0.324705Q26.3266 0.216644 27.0595 0.144458Q27.7924 0.0722726 28.528 0.0361363Q29.2635 0 30 0Q30.7365 0 31.472 0.0361363Q32.2076 0.0722726 32.9405 0.144458Q33.6734 0.216644 34.4019 0.324705Q35.1304 0.432766 35.8527 0.576441Q36.575 0.720117 37.2894 0.899062Q38.0038 1.07801 38.7085 1.29179Q39.4133 1.50557 40.1067 1.75368Q40.8001 2.00178 41.4805 2.28361Q42.1609 2.56544 42.8266 2.88032Q43.4924 3.1952 44.1419 3.54236Q44.7914 3.88953 45.4231 4.26814Q46.0548 4.64676 46.6671 5.05591Q47.2794 5.46507 47.871 5.90377Q48.4625 6.34248 49.0318 6.80969Q49.6011 7.27689 50.1468 7.77146Q50.6924 8.26604 51.2132 8.7868Q51.734 9.30755 52.2285 9.85323Q52.7231 10.3989 53.1903 10.9682Q53.6575 11.5375 54.0962 12.129Q54.5349 12.7205 54.9441 13.3329Q55.3532 13.9452 55.7319 14.5769Q56.1105 15.2086 56.4576 15.8581Q56.8048 16.5076 57.1197 17.1733Q57.4345 17.8391 57.7164 18.5195Q57.9982 19.1999 58.2463 19.8933Q58.4944 20.5867 58.7082 21.2915Q58.922 21.9962 59.1009 22.7106Q59.2799 23.425 59.4236 24.1473Q59.5672 24.8696 59.6753 25.5981Q59.7833 26.3266 59.8555 27.0595Q59.9277 27.7924 59.9639 28.528Q60 29.2635 60 30Z" style="mix-blend-mode:normal" fill="#5eaff9" transform="translate(330, 222)"></path><path d="M60 30Q60 30.7365 59.9639 31.472Q59.9277 32.2076 59.8555 32.9405Q59.7833 33.6734 59.6753 34.4019Q59.5672 35.1304 59.4235 35.8527Q59.2799 36.575 59.1009 37.2894Q58.922 38.0038 58.7082 38.7085Q58.4944 39.4133 58.2463 40.1067Q57.9982 40.8001 57.7164 41.4805Q57.4345 42.1609 57.1197 42.8266Q56.8048 43.4924 56.4576 44.1419Q56.1105 44.7914 55.7318 45.4231Q55.3532 46.0548 54.9441 46.6671Q54.5349 47.2794 54.0962 47.871Q53.6575 48.4625 53.1903 49.0318Q52.7231 49.6011 52.2285 50.1468Q51.734 50.6924 51.2132 51.2132Q50.6924 51.734 50.1468 52.2285Q49.6011 52.7231 49.0318 53.1903Q48.4625 53.6575 47.871 54.0962Q47.2794 54.5349 46.6671 54.9441Q46.0548 55.3532 45.4231 55.7319Q44.7914 56.1105 44.1419 56.4576Q43.4924 56.8048 42.8266 57.1197Q42.1609 57.4345 41.4805 57.7164Q40.8001 57.9982 40.1067 58.2463Q39.4133 58.4944 38.7085 58.7082Q38.0038 58.922 37.2894 59.1009Q36.575 59.2799 35.8527 59.4236Q35.1304 59.5672 34.4019 59.6753Q33.6734 59.7833 32.9405 59.8555Q32.2076 59.9277 31.472 59.9639Q30.7365 60 30 60Q29.2635 60 28.528 59.9639Q27.7924 59.9277 27.0595 59.8555Q26.3266 59.7833 25.5981 59.6753Q24.8696 59.5672 24.1473 59.4235Q23.425 59.2799 22.7106 59.1009Q21.9962 58.922 21.2915 58.7082Q20.5867 58.4944 19.8933 58.2463Q19.1999 57.9982 18.5195 57.7164Q17.8391 57.4345 17.1733 57.1197Q16.5076 56.8048 15.8581 56.4576Q15.2086 56.1105 14.5769 55.7318Q13.9452 55.3532 13.3329 54.9441Q12.7205 54.5349 12.129 54.0962Q11.5375 53.6575 10.9682 53.1903Q10.3989 52.7231 9.85323 52.2285Q9.30755 51.734 8.7868 51.2132Q8.26604 50.6924 7.77146 50.1468Q7.27689 49.6011 6.80969 49.0318Q6.34248 48.4625 5.90377 47.871Q5.46507 47.2794 5.05591 46.6671Q4.64676 46.0548 4.26814 45.4231Q3.88953 44.7914 3.54236 44.1419Q3.1952 43.4924 2.88032 42.8266Q2.56544 42.1609 2.28361 41.4805Q2.00178 40.8001 1.75368 40.1067Q1.50557 39.4133 1.29179 38.7085Q1.07801 38.0038 0.899062 37.2894Q0.720117 36.575 0.576441 35.8527Q0.432766 35.1304 0.324705 34.4019Q0.216644 33.6734 0.144458 32.9405Q0.0722726 32.2076 0.0361363 31.472Q0 30.7365 0 30Q0 29.2635 0.0361363 28.528Q0.0722726 27.7924 0.144458 27.0595Q0.216644 26.3266 0.324705 25.5981Q0.432766 24.8696 0.576441 24.1473Q0.720117 23.425 0.899062 22.7106Q1.07801 21.9962 1.29179 21.2915Q1.50557 20.5867 1.75368 19.8933Q2.00178 19.1999 2.28361 18.5195Q2.56544 17.8391 2.88032 17.1733Q3.1952 16.5076 3.54236 15.8581Q3.88953 15.2086 4.26814 14.5769Q4.64676 13.9452 5.05591 13.3329Q5.46507 12.7205 5.90377 12.129Q6.34248 11.5375 6.80969 10.9682Q7.27689 10.3989 7.77146 9.85323Q8.26604 9.30755 8.7868 8.7868Q9.30755 8.26604 9.85323 7.77146Q10.3989 7.27689 10.9682 6.80969Q11.5375 6.34248 12.129 5.90377Q12.7205 5.46507 13.3329 5.05591Q13.9452 4.64676 14.5769 4.26814Q15.2086 3.88953 15.8581 3.54236Q16.5076 3.1952 17.1733 2.88032Q17.8391 2.56544 18.5195 2.28361Q19.1999 2.00178 19.8933 1.75368Q20.5867 1.50557 21.2915 1.29179Q21.9962 1.07801 22.7106 0.899062Q23.425 0.720117 24.1473 0.576441Q24.8696 0.432766 25.5981 0.324705Q26.3266 0.216644 27.0595 0.144458Q27.7924 0.0722726 28.528 0.0361363Q29.2635 0 30 0Q30.7365 0 31.472 0.0361363Q32.2076 0.0722726 32.9405 0.144458Q33.6734 0.216644 34.4019 0.324705Q35.1304 0.432766 35.8527 0.576441Q36.575 0.720117 37.2894 0.899062Q38.0038 1.07801 38.7085 1.29179Q39.4133 1.50557 40.1067 1.75368Q40.8001 2.00178 41.4805 2.28361Q42.1609 2.56544 42.8266 2.88032Q43.4924 3.1952 44.1419 3.54236Q44.7914 3.88953 45.4231 4.26814Q46.0548 4.64676 46.6671 5.05591Q47.2794 5.46507 47.871 5.90377Q48.4625 6.34248 49.0318 6.80969Q49.6011 7.27689 50.1468 7.77146Q50.6924 8.26604 51.2132 8.7868Q51.734 9.30755 52.2285 9.85323Q52.7231 10.3989 53.1903 10.9682Q53.6575 11.5375 54.0962 12.129Q54.5349 12.7205 54.9441 13.3329Q55.3532 13.9452 55.7319 14.5769Q56.1105 15.2086 56.4576 15.8581Q56.8048 16.5076 57.1197 17.1733Q57.4345 17.8391 57.7164 18.5195Q57.9982 19.1999 58.2463 19.8933Q58.4944 20.5867 58.7082 21.2915Q58.922 21.9962 59.1009 22.7106Q59.2799 23.425 59.4236 24.1473Q59.5672 24.8696 59.6753 25.5981Q59.7833 26.3266 59.8555 27.0595Q59.9277 27.7924 59.9639 28.528Q60 29.2635 60 30Z" style="mix-blend-mode:normal" fill="#5eaff9" transform="translate(292, 286)"></path><path d="M0 -0.5L83 -0.5L83.5 -0.5L83.5 0.5L83 0.5L-0.5 0.5L-0.5 -0.5L0 -0.5Z" style="mix-blend-mode:normal" fill="#5eaff9" transform="matrix(1, 4.488301558842217e-11, -4.488301558842217e-11, 1, 351.9999998970017, 251.9999999962747)"></path></svg>